<svg xmlns="http://www.w3.org/2000/svg" xmlns:xlink="http://www.w3.org/1999/xlink" width="1920" zoomAndPan="magnify" viewBox="0 0 1440 809.999993" height="1080" preserveAspectRatio="xMidYMid meet" version="1.0"><defs><g/><clipPath id="1410e93670"><path d="M 118 231.128906 L 436 231.128906 L 436 365 L 118 365 Z M 118 231.128906 " clip-rule="nonzero"/></clipPath><clipPath id="e71d2b1625"><path d="M 100.273438 314 L 483 314 L 483 534 L 100.273438 534 Z M 100.273438 314 " clip-rule="nonzero"/></clipPath><clipPath id="f672755dcf"><path d="M 100.273438 383 L 482 383 L 482 534 L 100.273438 534 Z M 100.273438 383 " clip-rule="nonzero"/></clipPath><clipPath id="4768703580"><path d="M 118 231.128906 L 436 231.128906 L 436 365 L 118 365 Z M 118 231.128906 " clip-rule="nonzero"/></clipPath></defs><path fill="#e9c46a" d="M 456.585938 151.613281 C 498.8125 179.210938 524.414062 232.078125 536.386719 283.949219 C 548.355469 335.484375 546.691406 386.023438 538.714844 434.898438 C 531.066406 484.109375 517.433594 531.65625 489.835938 572.886719 C 462.238281 614.113281 421.34375 649.027344 372.796875 667.3125 C 323.921875 685.933594 268.0625 687.929688 220.183594 670.304688 C 172.636719 652.351562 133.070312 614.78125 96.828125 573.550781 C 60.585938 532.652344 27.335938 488.433594 14.367188 437.558594 C 1.070312 386.6875 7.71875 329.167969 30.992188 279.625 C 54.269531 230.082031 94.167969 188.523438 141.382812 163.25 C 188.265625 137.980469 242.792969 129.003906 299.316406 125.679688 C 355.839844 122.023438 414.359375 124.351562 456.585938 151.613281 Z M 456.585938 151.613281 " fill-opacity="1" fill-rule="nonzero"/><g clip-path="url(#1410e93670)"><path fill="#303033" d="M 121.121094 327.914062 C 122.082031 328.726562 123.5625 329.003906 124.851562 329.386719 C 131.050781 331.246094 137.269531 333.066406 143.488281 334.894531 C 154.25 337.160156 164.96875 339.664062 175.78125 341.644531 C 211.0625 348.113281 246.378906 354.410156 281.683594 360.722656 C 289.304688 362.085938 296.925781 363.757812 304.617188 364.335938 C 309.054688 364.675781 314.046875 364.011719 318.097656 362.257812 C 340.6875 352.476562 363.128906 342.367188 385.488281 332.074219 C 397.46875 326.558594 409.175781 320.464844 421.429688 314.324219 C 432.15625 307.183594 435.421875 296.988281 435.457031 285.492188 C 435.488281 276.6875 431.339844 271.625 423.34375 269.765625 C 422.550781 270.917969 422 272.714844 420.917969 273.121094 C 420.847656 273.148438 420.773438 273.175781 420.703125 273.203125 C 420.773438 273.175781 420.847656 273.148438 420.917969 273.121094 C 422 272.714844 422.550781 270.917969 423.191406 269.65625 C 422.65625 269.4375 422.285156 269.324219 421.558594 269.269531 C 415.757812 271.207031 410.234375 272.933594 404.851562 275.019531 C 410.234375 272.941406 415.75 271.207031 421.351562 269.050781 C 407.429688 264.621094 393.507812 259.925781 379.289062 256.40625 C 346.429688 248.269531 313.390625 240.835938 280.53125 232.800781 C 274.199219 231.257812 268.136719 231.125 262.007812 232.695312 C 235.398438 239.519531 208.746094 246.179688 182.273438 253.484375 C 164.847656 258.292969 147.707031 264.09375 130.441406 269.453125 C 127.925781 270.226562 125.535156 271.105469 127.605469 274.441406 C 129.929688 274.640625 132.332031 274.578125 134.640625 274.832031 C 132.324219 274.589844 129.902344 274.71875 127.558594 274.734375 C 127.71875 279.246094 131.898438 276.335938 133.714844 278.222656 C 134.730469 278.269531 135.4375 278.210938 136.085938 278.375 C 150.183594 282 164.238281 285.792969 178.375 289.261719 C 202.589844 295.199219 226.855469 300.929688 251.101562 306.746094 C 266.632812 310.472656 282.21875 314.03125 297.6875 317.996094 C 308.820312 320.855469 314.960938 328.945312 314.882812 339.507812 C 314.953125 328.949219 308.808594 320.863281 297.6875 318.011719 C 282.21875 314.046875 266.640625 310.496094 251.101562 306.761719 C 226.855469 300.945312 202.589844 295.214844 178.375 289.277344 C 164.238281 285.808594 150.183594 282.015625 136.085938 278.390625 C 135.4375 278.222656 134.730469 278.285156 133.714844 278.554688 C 134.964844 285.988281 137.347656 293.046875 137.917969 300.238281 C 138.503906 307.574219 137.246094 315 129.914062 319.589844 C 128.457031 320.5 127.261719 321.8125 126.15625 323.15625 C 128.207031 323.714844 130.148438 324.230469 132.070312 324.636719 C 130.125 324.230469 128.109375 323.707031 125.8125 323.148438 C 124.292969 322.855469 123.292969 322.539062 122.425781 322.757812 C 121.136719 323.082031 119.9375 323.789062 118.703125 324.332031 C 119.488281 325.550781 120.058594 327.015625 121.121094 327.914062 Z M 358.933594 295.929688 C 357.398438 296.484375 355.59375 296.320312 353.90625 296.484375 C 355.585938 296.320312 357.394531 296.484375 358.933594 295.929688 C 359.160156 295.847656 359.382812 295.765625 359.609375 295.683594 C 359.382812 295.765625 359.160156 295.847656 358.933594 295.929688 Z M 188.847656 307.078125 C 194.53125 308.605469 200.292969 309.863281 205.960938 311.433594 C 215.886719 314.1875 225.742188 317.175781 235.675781 319.914062 C 241.800781 321.601562 248.011719 323 254.410156 324.699219 C 259.363281 326.289062 264.144531 327.519531 268.792969 329.183594 C 272.757812 330.597656 277.046875 330.070312 280.972656 332.863281 C 284.539062 335.390625 289.671875 335.84375 294.171875 336.964844 C 294.308594 336.996094 294.445312 337.015625 294.585938 337.023438 C 294.441406 337.015625 294.300781 336.996094 294.164062 336.964844 C 289.664062 335.84375 284.53125 335.390625 280.96875 332.863281 C 277.039062 330.078125 272.75 330.605469 268.785156 329.183594 C 264.144531 327.527344 259.363281 326.292969 254.640625 324.871094 C 248.011719 323 241.800781 321.601562 235.667969 319.914062 C 225.734375 317.175781 215.878906 314.1875 205.953125 311.433594 C 200.285156 309.863281 194.523438 308.605469 188.839844 307.078125 C 187.796875 306.800781 186.925781 305.890625 185.972656 305.265625 C 186.960938 305.097656 187.988281 304.664062 188.917969 304.78125 C 187.992188 304.671875 186.957031 305.101562 185.980469 305.265625 C 186.933594 305.882812 187.804688 306.800781 188.847656 307.078125 Z M 192.875 305.472656 C 195.824219 306.003906 198.761719 306.578125 201.667969 307.261719 C 198.757812 306.578125 195.820312 306.003906 192.875 305.472656 Z M 242.703125 326.167969 C 241.65625 325.589844 240.636719 324.953125 239.550781 324.464844 C 238.832031 324.152344 238.007812 324.03125 237.230469 323.863281 C 232.875 322.9375 228.519531 321.992188 224.140625 321.15625 C 223.722656 321.074219 223.167969 321.664062 222.671875 321.949219 C 222.671875 321.949219 222.667969 321.945312 222.667969 321.945312 C 223.164062 321.667969 223.71875 321.066406 224.140625 321.148438 C 228.519531 321.984375 232.875 322.929688 237.230469 323.855469 C 238.015625 324.023438 238.832031 324.144531 239.550781 324.457031 C 240.640625 324.949219 241.664062 325.585938 242.714844 326.167969 C 242.710938 326.167969 242.707031 326.167969 242.703125 326.167969 Z M 241.996094 326.191406 C 241.105469 326.222656 240.210938 326.257812 239.3125 326.289062 C 235.265625 325.175781 231.351562 324.347656 227.476562 323.558594 C 231.34375 324.332031 235.234375 325.117188 239.191406 326.046875 C 240.179688 326.207031 241.097656 326.210938 241.996094 326.191406 Z M 217.960938 319.535156 C 217.285156 319.292969 216.621094 319.019531 215.929688 318.824219 C 213.941406 318.25 211.972656 317.492188 209.933594 317.222656 C 208.300781 317.003906 206.585938 317.382812 204.90625 317.5 C 204.902344 317.496094 204.898438 317.492188 204.890625 317.492188 C 206.578125 317.378906 208.292969 316.996094 209.933594 317.214844 C 211.972656 317.484375 213.941406 318.242188 215.929688 318.816406 C 216.625 319.011719 217.289062 319.289062 217.96875 319.53125 C 217.964844 319.53125 217.960938 319.535156 217.960938 319.535156 Z M 213.226562 320.335938 C 211.847656 320.074219 210.472656 319.722656 209.09375 319.441406 C 208.996094 319.394531 208.90625 319.351562 208.8125 319.308594 C 210.386719 319.6875 211.824219 320.0625 213.226562 320.335938 Z M 311.300781 354.050781 C 312.792969 353.289062 313.480469 350.972656 314.527344 349.363281 C 314.5 347.84375 314.257812 346.292969 314.386719 344.808594 C 314.261719 346.296875 314.535156 347.839844 314.816406 349.3125 C 315.425781 348.859375 315.839844 348.503906 316.042969 348.039062 C 321.429688 336.953125 315.34375 322.839844 304.511719 317.183594 C 315.359375 322.832031 321.457031 336.960938 316.074219 348.054688 C 315.851562 348.503906 315.441406 348.859375 314.832031 349.3125 C 313.488281 350.972656 312.808594 353.285156 311.3125 354.042969 C 309.636719 354.898438 307.761719 355.859375 305.902344 356.460938 C 307.757812 355.859375 309.625 354.898438 311.300781 354.050781 Z M 291.597656 324.402344 C 291.222656 324.25 290.84375 324.097656 290.460938 323.949219 C 290.84375 324.097656 291.222656 324.25 291.597656 324.402344 Z M 289.460938 323.574219 C 289.050781 323.425781 288.632812 323.277344 288.214844 323.128906 C 288.636719 323.277344 289.050781 323.425781 289.460938 323.574219 Z M 282.71875 321.277344 C 278.980469 320.304688 275.4375 319.402344 271.945312 318.484375 C 275.496094 319.410156 279.050781 320.316406 282.597656 321.238281 C 282.640625 321.253906 282.679688 321.265625 282.71875 321.277344 Z M 176.875 295.464844 C 177.238281 295.9375 177.511719 296.5625 177.992188 296.847656 C 178.671875 297.253906 179.511719 297.378906 180.265625 297.667969 C 187.0625 300.230469 194.546875 300.109375 201.300781 302.96875 C 203.832031 304.046875 206.753906 304.175781 209.429688 304.957031 C 218.507812 307.597656 227.535156 310.398438 236.621094 313.023438 C 252.632812 317.648438 268.675781 322.179688 284.699219 326.785156 C 286.863281 327.410156 288.917969 328.515625 291.113281 328.851562 C 292.042969 329.003906 293.195312 327.769531 294.253906 327.160156 C 294.253906 327.160156 294.257812 327.160156 294.257812 327.160156 C 293.203125 327.769531 292.042969 329.003906 291.105469 328.859375 C 288.910156 328.515625 286.855469 327.414062 284.691406 326.792969 C 268.667969 322.1875 252.625 317.65625 236.613281 313.03125 C 227.535156 310.402344 218.5 307.605469 209.421875 304.964844 C 206.746094 304.183594 203.824219 304.046875 201.292969 302.976562 C 194.53125 300.117188 187.054688 300.238281 180.257812 297.671875 C 179.503906 297.386719 178.664062 297.257812 177.984375 296.851562 C 177.503906 296.566406 177.230469 295.941406 176.863281 295.46875 C 176.867188 295.46875 176.871094 295.464844 176.875 295.464844 Z M 177.609375 311.871094 C 176.789062 311.96875 175.933594 312.246094 175.140625 312.121094 C 168.496094 311.074219 161.851562 310.003906 155.234375 308.792969 C 154.398438 308.644531 153.71875 307.648438 152.960938 307.046875 C 152.964844 306.835938 152.964844 306.699219 152.960938 306.597656 C 160.570312 307.648438 168.078125 308.683594 175.550781 309.886719 C 176.328125 310.011719 176.933594 311.1875 177.609375 311.871094 Z M 175.300781 302.015625 C 174.886719 302.136719 174.445312 302.421875 174.070312 302.351562 C 169.355469 301.503906 164.648438 300.617188 159.941406 299.703125 C 159.628906 299.644531 159.378906 299.328125 159.097656 299.132812 C 159.46875 298.921875 159.867188 298.507812 160.226562 298.539062 C 161.644531 298.675781 163.054688 298.945312 164.472656 299.171875 C 168.234375 299.96875 171.332031 300.59375 174.429688 301.277344 C 174.757812 301.351562 175.011719 301.757812 175.300781 302.015625 Z M 156.28125 289.71875 C 160.402344 290.585938 164.464844 291.738281 168.539062 292.8125 C 169.089844 292.957031 169.585938 293.285156 170.113281 293.535156 C 169.5 293.980469 168.945312 294.605469 168.265625 294.792969 C 167.738281 294.933594 167.058594 294.542969 166.449219 294.363281 C 162.054688 293.078125 157.652344 291.789062 153.261719 290.503906 C 153.910156 290.15625 155.199219 289.488281 156.28125 289.71875 Z M 134.035156 325.003906 C 133.722656 324.953125 133.40625 324.898438 133.089844 324.839844 C 133.402344 324.898438 133.71875 324.953125 134.035156 325.003906 Z M 134.035156 325.003906 " fill-opacity="1" fill-rule="nonzero"/></g><path fill="#303033" d="M 126.246094 389.714844 C 127 390.097656 127.496094 390.347656 128.015625 390.46875 C 163.285156 398.554688 198.550781 406.628906 233.820312 414.714844 C 255.816406 419.765625 277.808594 424.820312 299.792969 429.886719 C 304.867188 431.058594 310.253906 427.679688 311.773438 422.585938 C 314.015625 415.03125 312.664062 407.734375 310.535156 400.445312 C 307.46875 389.058594 298.007812 387.464844 288.183594 385.71875 C 265.144531 381.609375 242.160156 377.226562 219.21875 372.628906 C 196.417969 368.054688 173.683594 363.15625 150.957031 358.234375 C 142.230469 356.34375 133.609375 353.992188 124.652344 352.140625 C 125.1875 354.132812 126.007812 355.839844 126.824219 357.550781 C 128.269531 357.957031 129.699219 358.441406 131.148438 358.8125 C 129.691406 358.449219 128.230469 357.988281 126.605469 357.707031 C 125.675781 359.851562 126.148438 361.191406 128.777344 361.46875 C 135.582031 362.546875 142.0625 363.621094 148.515625 364.808594 C 161.324219 367.171875 174.140625 369.519531 186.917969 372.03125 C 195.027344 373.628906 203.070312 375.5625 211.164062 377.269531 C 217.441406 378.59375 223.75 379.804688 230.050781 381.03125 C 230.171875 381.054688 230.296875 381.0625 230.421875 381.054688 C 230.289062 381.0625 230.160156 381.054688 230.035156 381.03125 C 223.734375 379.804688 217.425781 378.59375 211.148438 377.269531 C 203.0625 375.5625 195.011719 373.628906 186.902344 372.03125 C 174.125 369.519531 161.308594 367.171875 148.5 364.808594 C 142.046875 363.613281 135.570312 362.546875 128.769531 361.808594 C 128.558594 362.980469 128.703125 363.765625 128.785156 364.546875 C 129.457031 371.046875 131.664062 377.578125 128.511719 384.328125 C 127.695312 386.261719 126.847656 387.894531 126.246094 389.714844 Z M 284.589844 393.527344 C 284.125 393.183594 283.707031 392.6875 283.179688 392.511719 C 282.703125 392.359375 282.21875 392.207031 281.742188 392.054688 C 282.222656 392.207031 282.699219 392.359375 283.179688 392.511719 C 283.707031 392.6875 284.125 393.183594 284.589844 393.527344 Z M 238.78125 381 C 249.09375 383.6875 259.363281 386.546875 269.660156 389.269531 C 270.605469 389.519531 271.71875 389.179688 272.75 389.121094 C 275.097656 389.945312 277.257812 390.640625 279.34375 391.296875 C 277.285156 390.652344 275.1875 390 272.996094 389.277344 C 271.714844 389.179688 270.605469 389.519531 269.660156 389.269531 C 259.363281 386.546875 249.09375 383.6875 238.78125 381 C 237.78125 380.738281 236.535156 381.386719 235.398438 381.609375 C 236.527344 381.386719 237.78125 380.738281 238.78125 381 Z M 230.570312 385.652344 C 229.777344 385.515625 228.988281 385.335938 228.203125 385.148438 C 229 385.335938 229.785156 385.511719 230.570312 385.644531 C 231.535156 385.808594 232.578125 385.519531 233.589844 385.433594 C 233.59375 385.4375 233.597656 385.4375 233.597656 385.441406 C 232.585938 385.523438 231.539062 385.816406 230.570312 385.652344 Z M 198.585938 373.199219 C 199.121094 373.179688 199.65625 373.175781 200.183594 373.1875 C 199.65625 373.175781 199.125 373.179688 198.589844 373.199219 C 198.589844 373.199219 198.585938 373.199219 198.585938 373.199219 Z M 207.101562 379.15625 C 207.59375 379.730469 208.007812 380.664062 208.605469 380.804688 C 212.03125 381.613281 215.476562 382.351562 219.023438 383.09375 C 215.40625 382.34375 211.996094 381.613281 208.605469 380.8125 C 208.003906 380.671875 207.601562 379.730469 207.097656 379.160156 C 207.097656 379.15625 207.101562 379.15625 207.101562 379.15625 Z M 207.101562 379.15625 " fill-opacity="1" fill-rule="nonzero"/><g clip-path="url(#e71d2b1625)"><path fill="#303033" d="M 481.285156 416.484375 C 473.390625 418.019531 465.804688 419.472656 458.316406 421.269531 C 400.578125 435.152344 342.859375 449.101562 285.132812 463.035156 C 278.9375 464.53125 272.78125 466.1875 266.554688 467.519531 C 264.519531 467.953125 262.296875 467.511719 260.578125 468.808594 C 262.300781 467.5 264.523438 467.945312 266.5625 467.511719 C 272.796875 466.179688 278.945312 464.527344 285.140625 463.027344 C 342.859375 449.09375 400.585938 435.144531 458.324219 421.261719 C 465.8125 419.464844 473.398438 418.011719 481.285156 416.175781 C 480.195312 414.648438 478.941406 412.980469 477.265625 412.113281 C 474.761719 410.820312 471.96875 410.074219 469.292969 409.125 C 447.207031 401.347656 425.121094 393.574219 403.035156 385.800781 C 395.488281 390.035156 387.898438 394.199219 380.332031 398.40625 C 387.9375 394.171875 395.597656 389.953125 403.28125 385.621094 C 413.21875 380.785156 422.902344 376.148438 432.574219 371.5 C 440.113281 367.878906 444.941406 361.746094 446.125 353.863281 C 447.125 347.203125 446.96875 340.148438 445.902344 333.488281 C 444.851562 326.917969 441.386719 320.765625 434.894531 317.777344 C 430.804688 315.898438 426.015625 315.519531 421.269531 314.558594 C 409.175781 320.480469 397.46875 326.566406 385.488281 332.082031 C 363.128906 342.375 340.6875 352.484375 318.097656 362.265625 C 314.046875 364.019531 309.054688 364.683594 304.617188 364.34375 C 296.925781 363.765625 289.304688 362.09375 281.683594 360.730469 C 246.371094 354.410156 211.0625 348.121094 175.78125 341.652344 C 164.96875 339.664062 154.25 337.160156 143.234375 335.097656 C 135.972656 336.699219 128.902344 337.882812 121.980469 339.664062 C 120.074219 340.148438 118.632812 342.375 116.976562 343.804688 C 117.210938 343.777344 117.492188 343.691406 117.738281 343.652344 C 117.484375 343.722656 117.191406 343.878906 116.917969 344.089844 C 116.519531 349.613281 121.386719 349.792969 124.621094 351.855469 C 133.617188 353.984375 142.242188 356.339844 150.972656 358.226562 C 173.699219 363.148438 196.433594 368.046875 219.234375 372.621094 C 242.175781 377.226562 265.167969 381.605469 288.199219 385.710938 C 298.011719 387.464844 307.460938 389.058594 310.863281 400.351562 C 311.097656 399.59375 311.242188 398.851562 311.214844 398.160156 C 311.253906 398.859375 311.101562 399.605469 310.871094 400.375 C 312.671875 407.75 314.023438 415.054688 311.78125 422.609375 C 310.261719 427.703125 304.875 431.074219 299.800781 429.90625 C 277.808594 424.835938 255.824219 419.78125 233.828125 414.738281 C 198.558594 406.652344 163.292969 398.578125 128.023438 390.488281 C 127.496094 390.371094 127.007812 390.121094 125.894531 389.730469 C 124.878906 389.519531 124.386719 389.347656 124.078125 389.511719 C 122.371094 390.460938 119.59375 391.210938 119.257812 392.542969 C 119.179688 392.855469 119.148438 393.136719 119.160156 393.398438 C 119.148438 393.132812 119.179688 392.839844 119.257812 392.519531 C 119.59375 391.1875 122.371094 390.4375 124.078125 389.488281 C 124.378906 389.324219 124.871094 389.496094 125.644531 389.519531 C 126.847656 387.902344 127.703125 386.269531 128.207031 384.386719 C 124.011719 385.472656 120.226562 387.042969 116.296875 388.066406 C 108.339844 390.128906 103.75 395.605469 102.640625 403.015625 C 101.269531 412.25 101.164062 421.683594 100.796875 431.042969 C 100.507812 438.46875 104.703125 443.667969 110.515625 447.6875 C 126.804688 458.949219 142.90625 470.507812 159.554688 481.242188 C 185.886719 498.242188 212.132812 515.433594 240.824219 528.507812 C 247.542969 531.570312 254.378906 534.582031 261.972656 533.46875 C 269.21875 532.40625 276.480469 531.089844 283.539062 529.171875 C 325.664062 517.710938 367.769531 506.1875 409.796875 494.386719 C 431.09375 488.40625 452.234375 481.847656 473.390625 475.375 C 474.855469 474.925781 475.867188 473.027344 477.097656 471.800781 C 475.554688 471.117188 474.007812 470.441406 472.464844 469.753906 C 444.777344 477.101562 417.074219 484.40625 389.394531 491.777344 C 417.070312 484.394531 444.753906 477.046875 472.359375 469.507812 C 464.667969 462.570312 463.394531 453.8125 464.464844 444.578125 C 464.929688 440.507812 466.355469 436.484375 467.835938 432.617188 C 469.191406 429.078125 471.195312 425.792969 472.917969 422.394531 C 472.933594 422.390625 472.949219 422.386719 472.960938 422.382812 C 473.007812 422.367188 473.097656 422.382812 473.105469 422.382812 C 473.289062 422.210938 473.511719 422.136719 474.242188 422.089844 C 476.53125 421.527344 478.371094 421.097656 480.15625 420.519531 C 482.253906 419.839844 482.980469 418.554688 481.285156 416.484375 Z M 385.632812 468.6875 C 385.613281 468.703125 385.589844 468.726562 385.566406 468.742188 C 385.589844 468.722656 385.613281 468.703125 385.632812 468.6875 Z M 348.085938 472.988281 C 348.011719 472.976562 347.941406 472.960938 347.871094 472.949219 C 359.355469 469.777344 370.476562 466.472656 381.691406 463.472656 C 370.445312 466.480469 359.285156 469.800781 348.085938 472.988281 Z M 375.777344 470.464844 C 373.226562 471.105469 370.648438 471.753906 367.996094 472.410156 C 367.925781 472.425781 367.867188 472.433594 367.796875 472.445312 C 370.570312 471.765625 373.207031 471.105469 375.777344 470.464844 Z M 363.082031 474.050781 C 364.066406 474.121094 365.113281 474.441406 366.027344 474.214844 C 372.253906 472.6875 378.457031 471.046875 384.65625 469.414062 C 384.773438 469.386719 384.882812 469.320312 384.984375 469.246094 C 384.878906 469.324219 384.769531 469.390625 384.652344 469.421875 C 378.449219 471.054688 372.246094 472.695312 366.019531 474.222656 C 365.105469 474.449219 364.058594 474.125 363.070312 474.058594 C 363.074219 474.054688 363.078125 474.054688 363.082031 474.050781 Z M 376.980469 455.902344 C 377.375 455.964844 377.816406 456.171875 378.152344 456.070312 C 379.628906 455.585938 381.035156 454.84375 382.539062 454.519531 C 386.6875 453.617188 390.914062 453.042969 395.035156 452.042969 C 399.269531 451.015625 403.5 449.949219 407.746094 448.867188 C 403.480469 449.960938 399.261719 451.019531 395.035156 452.050781 C 390.914062 453.050781 386.6875 453.621094 382.539062 454.527344 C 381.035156 454.855469 379.625 455.601562 378.152344 456.074219 C 377.816406 456.1875 377.371094 455.96875 376.976562 455.910156 C 376.976562 455.910156 376.980469 455.90625 376.980469 455.902344 Z M 346.949219 470.867188 C 346.949219 470.867188 346.945312 470.867188 346.945312 470.867188 C 346.945312 470.867188 346.949219 470.867188 346.949219 470.867188 C 352.980469 469.179688 359.011719 467.488281 365.042969 465.8125 C 359.011719 467.488281 352.980469 469.179688 346.949219 470.867188 Z M 345.253906 472.316406 C 345.050781 472.253906 344.851562 472.195312 344.652344 472.132812 C 344.65625 472.128906 344.660156 472.128906 344.660156 472.125 C 344.660156 472.128906 344.65625 472.128906 344.652344 472.132812 C 344.851562 472.195312 345.050781 472.253906 345.253906 472.316406 Z M 371.53125 347.992188 C 386.035156 340.1875 400.550781 332.3125 415.234375 324.40625 C 416.808594 323.542969 418.28125 322.789062 419.660156 321.976562 C 418.300781 322.78125 416.886719 323.511719 415.515625 324.300781 C 400.628906 332.289062 386.054688 340.183594 371.53125 347.992188 Z M 359.738281 354.316406 C 363.320312 352.398438 366.90625 350.480469 370.492188 348.550781 C 366.90625 350.480469 363.320312 352.398438 359.738281 354.316406 Z M 354.859375 353.710938 C 376.59375 341.898438 398.359375 330.148438 420.179688 318.476562 C 421.886719 317.566406 424 317.402344 425.929688 316.890625 C 425.929688 316.890625 425.929688 316.890625 425.925781 316.890625 C 424 317.402344 421.890625 317.570312 420.1875 318.476562 C 398.367188 330.148438 376.601562 341.898438 354.867188 353.710938 C 353.265625 354.585938 352.015625 356.058594 350.597656 357.253906 C 350.59375 357.253906 350.589844 357.253906 350.585938 357.257812 C 352.007812 356.058594 353.265625 354.578125 354.859375 353.710938 Z M 188.382812 436.6875 C 181.65625 433.15625 174.828125 429.789062 168.359375 425.835938 C 155.992188 418.28125 143.824219 410.421875 131.632812 402.589844 C 130.34375 401.761719 127.597656 400.941406 130.480469 398.511719 C 129.53125 398.15625 128.527344 397.78125 127.492188 397.421875 C 128.585938 397.78125 129.679688 398.15625 130.777344 398.496094 C 131.457031 398.8125 132.144531 399.128906 133.441406 399.441406 C 134.121094 399.476562 134.667969 399.488281 135.136719 399.511719 C 134.714844 399.496094 134.253906 399.5 133.722656 399.496094 C 148.996094 411.015625 165.121094 421.652344 182.625 430.164062 C 185.171875 431.398438 187.566406 432.953125 189.917969 434.535156 C 190.582031 434.984375 190.824219 436.039062 191.257812 436.816406 C 190.289062 436.785156 189.144531 437.085938 188.382812 436.6875 Z M 255.269531 477.40625 C 252.707031 482.792969 251.347656 488.480469 252.734375 494.863281 C 253.304688 494.238281 253.632812 493.695312 253.832031 493.117188 C 255.777344 487.496094 257.316406 481.703125 259.8125 476.332031 C 260.066406 475.789062 260.433594 475.242188 260.878906 474.726562 C 260.4375 475.242188 260.070312 475.78125 259.820312 476.324219 C 257.324219 481.695312 255.785156 487.488281 253.839844 493.109375 C 253.640625 493.695312 253.304688 494.230469 252.726562 495.191406 C 252.546875 497.65625 252.625 499.734375 252.800781 501.792969 C 252.621094 499.730469 252.539062 497.644531 252.425781 495.253906 C 251.253906 488.597656 252.683594 482.820312 255.269531 477.40625 Z M 410.8125 456.207031 C 413.875 455.21875 416.910156 454.128906 420.019531 453.328125 C 416.90625 454.136719 413.871094 455.21875 410.8125 456.207031 Z M 452.082031 437.296875 C 449.34375 438.035156 446.597656 438.753906 443.851562 439.472656 C 446.601562 438.75 449.347656 438.027344 452.082031 437.289062 C 452.828125 437.09375 453.332031 436.023438 453.945312 435.359375 C 453.949219 435.363281 453.949219 435.363281 453.949219 435.363281 C 453.332031 436.023438 452.828125 437.09375 452.082031 437.296875 Z M 452.082031 437.296875 " fill-opacity="1" fill-rule="nonzero"/></g><path fill="#303033" d="M 473.265625 422.519531 C 473.664062 422.519531 473.894531 422.382812 473.945312 422.210938 C 473.511719 422.136719 473.289062 422.210938 473.265625 422.519531 Z M 473.265625 422.519531 " fill-opacity="1" fill-rule="nonzero"/><path fill="#2e59a7" d="M 244.699219 461.3125 C 245.796875 461.847656 246.851562 462.628906 248.011719 462.839844 C 249.503906 463.109375 251.085938 462.914062 252.625 462.921875 C 251.527344 461.921875 250.597656 460.515625 249.300781 459.988281 C 240.402344 456.347656 231.449219 452.855469 222.460938 449.433594 C 221.394531 449.027344 220.042969 449.335938 218.820312 449.3125 C 219.738281 450.167969 220.507812 451.367188 221.589844 451.824219 C 229.066406 454.96875 236.621094 457.964844 244.699219 461.3125 Z M 244.699219 461.3125 " fill-opacity="1" fill-rule="nonzero"/><g clip-path="url(#f672755dcf)"><path fill="#f45830" d="M 366.484375 497.894531 C 332.613281 506.992188 298.773438 516.222656 264.976562 525.574219 C 261.992188 526.402344 260.597656 525.289062 259.246094 523.332031 C 254.808594 516.898438 253.496094 509.519531 252.816406 501.972656 C 252.625 499.851562 252.542969 497.714844 252.425781 495.253906 C 250.710938 485.503906 254.570312 477.640625 259.476562 470.027344 C 261.269531 467.25 264.054688 468.046875 266.5625 467.511719 C 272.796875 466.179688 278.945312 464.527344 285.140625 463.027344 C 342.859375 449.09375 400.585938 435.144531 458.324219 421.261719 C 465.8125 419.464844 473.398438 418.011719 481.285156 416.175781 C 480.195312 414.648438 478.941406 412.980469 477.265625 412.113281 C 474.761719 410.820312 471.96875 410.074219 469.292969 409.125 C 447.207031 401.347656 425.121094 393.574219 403.035156 385.800781 L 130.226562 384.15625 C 129.539062 383.699219 128.640625 383.726562 127.898438 384.140625 C 126.769531 384.769531 125.59375 385.121094 124.316406 385.535156 C 121.648438 386.394531 119.015625 387.363281 116.296875 388.066406 C 108.339844 390.128906 103.75 395.605469 102.640625 403.015625 C 101.269531 412.25 101.164062 421.683594 100.796875 431.042969 C 100.507812 438.46875 104.703125 443.667969 110.515625 447.6875 C 126.804688 458.949219 142.90625 470.507812 159.554688 481.242188 C 185.886719 498.242188 212.132812 515.433594 240.824219 528.507812 C 247.542969 531.570312 254.378906 534.582031 261.972656 533.46875 C 269.21875 532.40625 276.480469 531.089844 283.539062 529.171875 C 325.664062 517.710938 367.769531 506.1875 409.796875 494.386719 C 431.09375 488.40625 452.234375 481.847656 473.390625 475.375 C 474.855469 474.921875 475.867188 473.027344 477.097656 471.800781 C 475.554688 471.117188 474.007812 470.4375 472.464844 469.753906 C 437.136719 479.128906 401.785156 488.429688 366.484375 497.894531 Z M 366.484375 497.894531 " fill-opacity="1" fill-rule="nonzero"/></g><path fill="#fcac3d" d="M 445.902344 333.488281 C 444.851562 326.917969 441.386719 320.765625 434.894531 317.777344 C 430.804688 315.898438 426.015625 315.519531 421.269531 314.558594 L 222.796875 304.753906 L 143.234375 335.097656 C 135.972656 336.699219 128.902344 337.882812 121.980469 339.664062 C 120.074219 340.144531 118.632812 342.375 116.976562 343.804688 C 117.382812 343.757812 117.929688 343.515625 118.175781 343.691406 C 128.320312 350.945312 140.65625 352.058594 152.222656 354.667969 C 189.269531 363.035156 226.496094 370.617188 263.695312 378.285156 C 274.558594 380.527344 285.519531 382.535156 296.539062 383.746094 C 305.441406 384.726562 309.148438 389.949219 311.109375 397.488281 C 311.34375 398.367188 311.175781 399.351562 310.871094 400.375 C 312.671875 407.75 314.023438 415.054688 311.78125 422.609375 C 310.261719 427.703125 304.875 431.074219 299.800781 429.90625 C 277.808594 424.835938 255.820312 419.78125 233.828125 414.738281 C 198.558594 406.652344 163.292969 398.578125 128.023438 390.488281 C 127.496094 390.367188 127.007812 390.121094 125.894531 389.730469 C 124.878906 389.519531 124.386719 389.347656 124.078125 389.511719 C 122.371094 390.460938 119.59375 391.210938 119.257812 392.542969 C 118.617188 395.09375 121.136719 395.800781 123.445312 396.28125 C 125.933594 396.800781 128.335938 397.742188 130.777344 398.496094 C 131.457031 398.8125 132.144531 399.128906 133.441406 399.441406 C 134.867188 399.511719 135.699219 399.488281 136.484375 399.667969 C 150.949219 402.964844 165.398438 406.351562 179.878906 409.59375 C 221.203125 418.855469 262.574219 427.9375 303.855469 437.394531 C 311.445312 439.132812 317.523438 437.65625 323.757812 433.324219 C 334.453125 425.882812 345.316406 418.636719 356.53125 411.992188 C 371.820312 402.933594 387.503906 394.515625 403.28125 385.621094 C 413.21875 380.785156 422.902344 376.148438 432.574219 371.5 C 440.113281 367.878906 444.941406 361.746094 446.125 353.863281 C 447.125 347.203125 446.96875 340.144531 445.902344 333.488281 Z M 445.902344 333.488281 " fill-opacity="1" fill-rule="nonzero"/><g clip-path="url(#4768703580)"><path fill="#2e59a7" d="M 435.457031 285.492188 C 435.421875 296.988281 432.15625 307.183594 421.429688 314.324219 C 409.175781 320.464844 397.46875 326.558594 385.488281 332.074219 C 363.128906 342.367188 340.683594 352.476562 318.097656 362.257812 C 314.046875 364.011719 309.054688 364.675781 304.617188 364.335938 C 296.925781 363.757812 289.304688 362.085938 281.683594 360.722656 C 246.378906 354.410156 211.0625 348.113281 175.78125 341.644531 C 164.96875 339.664062 154.25 337.160156 143.488281 334.894531 C 137.269531 333.066406 131.050781 331.246094 124.851562 329.386719 C 123.5625 329.003906 122.082031 328.726562 121.121094 327.914062 C 120.058594 327.015625 119.488281 325.550781 118.703125 324.332031 C 119.9375 323.789062 121.136719 323.082031 122.425781 322.757812 C 123.292969 322.539062 124.292969 322.855469 125.8125 323.148438 C 129.144531 323.953125 131.882812 324.707031 134.675781 325.105469 C 143.53125 326.386719 152.488281 327.105469 161.253906 328.808594 C 200.175781 336.363281 239.054688 344.140625 277.929688 351.921875 C 285.878906 353.507812 293.683594 355.910156 301.695312 357 C 304.738281 357.414062 308.332031 355.5625 311.3125 354.042969 C 312.808594 353.285156 313.488281 350.972656 314.832031 349.3125 C 315.441406 348.859375 315.855469 348.503906 316.074219 348.054688 C 322.222656 335.382812 313.398438 318.753906 299.621094 315.324219 C 284.027344 311.441406 268.433594 307.5 252.738281 304.070312 C 214.03125 295.597656 175.535156 286.363281 137.476562 275.363281 C 134.363281 274.460938 130.898438 274.726562 127.605469 274.441406 C 125.535156 271.105469 127.925781 270.226562 130.441406 269.449219 C 147.707031 264.09375 164.847656 258.292969 182.273438 253.484375 C 208.746094 246.179688 235.398438 239.519531 262.007812 232.695312 C 268.136719 231.125 274.199219 231.257812 280.53125 232.800781 C 313.390625 240.835938 346.429688 248.269531 379.289062 256.40625 C 393.507812 259.925781 407.429688 264.621094 421.351562 269.050781 L 423.199219 269.984375 C 423.246094 269.910156 423.296875 269.84375 423.34375 269.765625 C 431.339844 271.625 435.488281 276.6875 435.457031 285.492188 Z M 435.457031 285.492188 " fill-opacity="1" fill-rule="nonzero"/></g><path fill="#fcac3d" d="M 415.515625 324.300781 C 417.507812 323.15625 419.597656 322.140625 421.46875 320.832031 C 423.085938 319.695312 424.449219 318.214844 425.929688 316.890625 C 424 317.402344 421.886719 317.566406 420.179688 318.476562 C 398.359375 330.148438 376.59375 341.898438 354.859375 353.710938 C 353.265625 354.578125 352.007812 356.058594 350.585938 357.257812 C 352.539062 356.894531 354.746094 356.984375 356.410156 356.097656 C 375.976562 345.652344 395.460938 335.058594 415.515625 324.300781 Z M 415.515625 324.300781 " fill-opacity="1" fill-rule="nonzero"/><path fill="#e5e1d7" d="M 472.359375 469.507812 C 437.136719 479.128906 401.785156 488.429688 366.484375 497.902344 C 332.613281 507 298.78125 516.230469 264.976562 525.582031 C 261.992188 526.410156 260.597656 525.289062 259.246094 523.339844 C 254.800781 516.90625 253.496094 509.527344 252.816406 501.980469 C 252.625 499.859375 252.542969 497.730469 252.726562 495.191406 C 253.304688 494.230469 253.640625 493.695312 253.839844 493.109375 C 255.785156 487.488281 257.324219 481.695312 259.820312 476.324219 C 260.828125 474.15625 263.648438 471.988281 266.050781 471.402344 C 288.359375 465.917969 310.765625 460.808594 333.117188 455.519531 C 379.722656 444.496094 426.320312 433.4375 472.925781 422.382812 C 471.199219 425.785156 469.195312 429.074219 467.835938 432.617188 C 466.355469 436.484375 464.929688 440.507812 464.464844 444.578125 C 463.394531 453.8125 464.667969 462.570312 472.359375 469.507812 Z M 348.085938 472.988281 C 359.285156 469.800781 370.445312 466.480469 381.691406 463.472656 C 389.875 461.28125 398.207031 459.621094 406.414062 457.503906 C 411 456.324219 415.425781 454.519531 420.019531 453.328125 C 424.703125 452.125 429.492188 451.359375 434.230469 450.335938 C 434.894531 450.191406 435.464844 449.664062 436.085938 449.320312 C 435.328125 448.996094 434.488281 448.273438 433.839844 448.410156 C 426.519531 449.960938 419.1875 451.515625 411.914062 453.320312 C 402.304688 455.707031 392.722656 458.25 383.164062 460.839844 C 371.070312 464.113281 359.011719 467.488281 346.949219 470.867188 C 346.132812 471.101562 345.414062 471.703125 344.652344 472.132812 C 345.566406 472.417969 346.492188 472.695312 348.085938 472.988281 Z M 425.6875 444.152344 C 434.488281 441.886719 443.300781 439.660156 452.082031 437.296875 C 452.828125 437.09375 453.332031 436.023438 453.949219 435.363281 C 453.128906 435.136719 452.234375 434.59375 451.488281 434.746094 C 446.613281 435.730469 441.730469 436.738281 436.914062 437.980469 C 420.003906 442.34375 403.089844 446.738281 386.222656 451.289062 C 383.332031 452.074219 380.660156 453.660156 377.90625 454.933594 C 377.523438 455.105469 377.28125 455.570312 376.976562 455.910156 C 377.371094 455.96875 377.816406 456.1875 378.152344 456.074219 C 379.625 455.601562 381.035156 454.855469 382.539062 454.527344 C 386.6875 453.625 390.914062 453.050781 395.035156 452.050781 C 405.066406 449.605469 415.058594 447.003906 425.6875 444.152344 Z M 367.691406 472.472656 C 367.042969 472.589844 366.363281 472.628906 365.753906 472.855469 C 364.839844 473.183594 363.960938 473.652344 363.070312 474.058594 C 364.058594 474.125 365.105469 474.449219 366.019531 474.222656 C 372.246094 472.695312 378.449219 471.054688 384.652344 469.421875 C 385.015625 469.324219 385.304688 468.933594 385.632812 468.6875 C 385.277344 468.542969 384.878906 468.210938 384.574219 468.28125 C 379.140625 469.613281 373.726562 470.988281 367.691406 472.472656 Z M 367.691406 472.472656 " fill-opacity="1" fill-rule="nonzero"/><path fill="#e5e1d7" d="M 310.535156 400.445312 C 312.664062 407.734375 314.015625 415.03125 311.773438 422.585938 C 310.253906 427.679688 304.867188 431.058594 299.792969 429.886719 C 277.808594 424.820312 255.816406 419.765625 233.820312 414.714844 C 198.550781 406.628906 163.285156 398.554688 128.015625 390.46875 C 127.496094 390.347656 127 390.097656 126.246094 389.714844 C 126.847656 387.894531 127.695312 386.261719 128.511719 384.328125 C 131.664062 377.578125 129.457031 371.046875 128.785156 364.546875 C 128.703125 363.765625 128.558594 362.980469 128.769531 361.808594 C 135.570312 362.546875 142.046875 363.613281 148.5 364.808594 C 161.308594 367.171875 174.125 369.519531 186.902344 372.03125 C 195.011719 373.628906 203.0625 375.5625 211.148438 377.269531 C 217.425781 378.59375 223.734375 379.804688 230.035156 381.03125 C 230.53125 381.128906 231.082031 380.925781 231.609375 380.867188 C 231.210938 380.339844 230.90625 379.472656 230.402344 379.332031 C 227.992188 378.667969 225.550781 377.976562 223.070312 377.707031 C 214.808594 376.796875 207.21875 372.875 198.574219 373.199219 C 194.570312 373.351562 190.542969 370.566406 186.390625 369.722656 C 168.402344 366.066406 150.359375 362.644531 132.347656 359.09375 C 130.480469 358.722656 128.664062 358.070312 126.824219 357.550781 C 126.007812 355.839844 125.1875 354.132812 124.652344 352.140625 C 133.609375 353.992188 142.230469 356.34375 150.957031 358.234375 C 173.683594 363.15625 196.417969 368.054688 219.21875 372.628906 C 242.160156 377.226562 265.144531 381.609375 288.183594 385.71875 C 298.007812 387.464844 307.46875 389.058594 310.535156 400.445312 Z M 272.75 389.121094 C 271.71875 389.179688 270.605469 389.519531 269.660156 389.269531 C 259.363281 386.546875 249.09375 383.6875 238.78125 381 C 237.78125 380.738281 236.527344 381.386719 235.398438 381.609375 C 236.316406 382.128906 237.167969 382.898438 238.152344 383.136719 C 248.414062 385.660156 258.691406 388.113281 268.964844 390.558594 C 273.550781 391.648438 278.136719 392.714844 282.738281 393.730469 C 283.308594 393.859375 283.972656 393.605469 284.589844 393.527344 C 284.125 393.183594 283.707031 392.6875 283.179688 392.511719 C 279.882812 391.453125 276.558594 390.460938 272.75 389.121094 Z M 224.382812 384.199219 C 226.445312 384.695312 228.488281 385.289062 230.570312 385.652344 C 231.539062 385.816406 232.585938 385.523438 233.597656 385.441406 C 232.738281 384.769531 231.960938 383.710938 230.992188 383.484375 C 223.734375 381.808594 216.449219 380.265625 209.15625 378.757812 C 208.523438 378.632812 207.785156 379.015625 207.097656 379.160156 C 207.601562 379.730469 208.003906 380.671875 208.605469 380.8125 C 213.621094 381.996094 218.660156 383.027344 224.382812 384.199219 Z M 224.382812 384.199219 " fill-opacity="1" fill-rule="nonzero"/><path fill="#e5e1d7" d="M 314.527344 349.363281 C 313.480469 350.972656 312.792969 353.289062 311.300781 354.050781 C 308.316406 355.5625 304.722656 357.421875 301.679688 357.007812 C 293.675781 355.917969 285.863281 353.523438 277.914062 351.929688 C 239.039062 344.148438 200.160156 336.363281 161.238281 328.816406 C 152.472656 327.113281 143.519531 326.394531 134.660156 325.113281 C 131.867188 324.707031 129.128906 323.960938 126.15625 323.15625 C 127.261719 321.808594 128.457031 320.5 129.914062 319.589844 C 137.246094 315 138.503906 307.574219 137.917969 300.238281 C 137.347656 293.046875 134.964844 285.988281 133.714844 278.554688 C 134.730469 278.285156 135.4375 278.222656 136.085938 278.390625 C 150.183594 282.015625 164.238281 285.808594 178.375 289.277344 C 202.589844 295.214844 226.855469 300.945312 251.101562 306.761719 C 266.640625 310.496094 282.21875 314.046875 297.6875 318.011719 C 310.398438 321.269531 316.609375 331.367188 314.464844 344.179688 C 314.183594 345.851562 314.496094 347.625 314.527344 349.363281 Z M 152.902344 306.589844 L 152.953125 306.402344 C 152.953125 306.402344 152.96875 306.535156 152.960938 307.046875 C 153.71875 307.648438 154.398438 308.644531 155.234375 308.792969 C 161.851562 310.003906 168.496094 311.074219 175.140625 312.121094 C 175.933594 312.246094 176.789062 311.96875 177.609375 311.871094 C 176.933594 311.1875 176.328125 310.011719 175.550781 309.886719 C 168.058594 308.679688 160.53125 307.644531 152.902344 306.589844 Z M 282.597656 321.238281 C 278.21875 320.101562 273.828125 318.996094 269.453125 317.835938 C 263.175781 316.175781 256.914062 314.429688 250.625 312.789062 C 244.46875 311.1875 238.328125 309.484375 232.089844 308.253906 C 230.226562 307.882812 228.679688 307.65625 226.800781 306.832031 C 222.132812 304.769531 216.824219 304.097656 211.765625 302.910156 C 205.808594 301.511719 199.820312 300.222656 193.875 298.757812 C 188.824219 297.515625 183.835938 296.054688 178.785156 294.800781 C 178.238281 294.664062 177.511719 295.226562 176.863281 295.46875 C 177.230469 295.941406 177.503906 296.566406 177.984375 296.851562 C 178.664062 297.257812 179.503906 297.386719 180.257812 297.671875 C 187.054688 300.238281 194.53125 300.117188 201.292969 302.976562 C 203.824219 304.046875 206.746094 304.183594 209.421875 304.964844 C 218.5 307.605469 227.535156 310.402344 236.613281 313.03125 C 252.625 317.65625 268.667969 322.1875 284.691406 326.792969 C 286.855469 327.414062 288.910156 328.515625 291.105469 328.859375 C 292.042969 329.003906 293.203125 327.769531 294.257812 327.160156 C 293.59375 326.300781 293.113281 325.046875 292.242188 324.667969 C 289.320312 323.414062 286.246094 322.480469 282.597656 321.238281 Z M 254.640625 324.871094 C 259.363281 326.292969 264.144531 327.527344 268.785156 329.183594 C 272.75 330.605469 277.039062 330.078125 280.96875 332.863281 C 284.53125 335.390625 289.664062 335.84375 294.164062 336.964844 C 295.25 337.234375 296.582031 336.519531 297.804688 336.265625 C 297.0625 335.339844 296.515625 333.992188 295.554688 333.5625 C 290.113281 331.148438 284.1875 330.230469 278.570312 328.109375 C 269.171875 324.550781 259.292969 322.210938 249.542969 319.605469 C 234.140625 315.492188 218.699219 311.523438 203.238281 307.628906 C 198.566406 306.445312 193.792969 305.632812 189.039062 304.792969 C 188.078125 304.617188 187.003906 305.09375 185.972656 305.265625 C 186.925781 305.890625 187.796875 306.800781 188.839844 307.078125 C 194.523438 308.605469 200.285156 309.863281 205.953125 311.433594 C 215.878906 314.1875 225.734375 317.175781 235.667969 319.914062 C 241.800781 321.601562 248.011719 323 254.640625 324.871094 Z M 239.3125 326.289062 C 240.449219 326.25 241.585938 326.203125 242.714844 326.167969 C 241.664062 325.585938 240.640625 324.949219 239.550781 324.457031 C 238.832031 324.144531 238.015625 324.023438 237.230469 323.855469 C 232.875 322.929688 228.519531 321.984375 224.140625 321.148438 C 223.71875 321.066406 223.164062 321.667969 222.667969 321.945312 C 223.035156 322.238281 223.355469 322.722656 223.757812 322.804688 C 228.855469 323.84375 233.964844 324.820312 239.3125 326.289062 Z M 153.261719 290.503906 C 157.652344 291.789062 162.054688 293.078125 166.449219 294.363281 C 167.058594 294.542969 167.738281 294.933594 168.265625 294.792969 C 168.945312 294.605469 169.5 293.980469 170.113281 293.535156 C 169.585938 293.285156 169.089844 292.957031 168.539062 292.8125 C 164.464844 291.738281 160.402344 290.585938 156.28125 289.71875 C 155.199219 289.488281 153.910156 290.15625 153.261719 290.503906 Z M 164.472656 299.171875 C 163.054688 298.945312 161.644531 298.675781 160.226562 298.539062 C 159.867188 298.507812 159.46875 298.921875 159.097656 299.132812 C 159.378906 299.328125 159.628906 299.644531 159.941406 299.703125 C 164.648438 300.617188 169.355469 301.503906 174.070312 302.351562 C 174.445312 302.421875 174.886719 302.136719 175.300781 302.015625 C 175.011719 301.757812 174.757812 301.351562 174.429688 301.277344 C 171.332031 300.59375 168.234375 299.96875 164.472656 299.171875 Z M 209.09375 319.441406 C 211.179688 319.871094 213.246094 320.464844 215.351562 320.660156 C 216.183594 320.734375 217.089844 319.9375 217.96875 319.53125 C 217.289062 319.289062 216.625 319.011719 215.929688 318.816406 C 213.941406 318.242188 211.972656 317.484375 209.933594 317.214844 C 208.292969 316.996094 206.578125 317.378906 204.890625 317.492188 C 206.097656 318.054688 207.300781 318.605469 209.09375 319.441406 Z M 209.09375 319.441406 " fill-opacity="1" fill-rule="nonzero"/><path fill="#303033" d="M 472.960938 422.382812 C 426.3125 433.445312 379.714844 444.503906 333.109375 455.527344 C 310.75 460.816406 288.351562 465.925781 266.042969 471.410156 C 263.648438 471.996094 260.820312 474.164062 259.8125 476.332031 C 257.316406 481.703125 255.777344 487.496094 253.832031 493.117188 C 253.632812 493.695312 253.304688 494.238281 252.734375 494.863281 C 250.703125 485.511719 254.5625 477.648438 259.46875 470.03125 C 261.253906 467.257812 264.046875 468.054688 266.554688 467.519531 C 272.78125 466.1875 278.9375 464.53125 285.132812 463.035156 C 342.859375 449.101562 400.578125 435.152344 458.316406 421.269531 C 465.804688 419.472656 473.390625 418.019531 481.285156 416.484375 C 482.980469 418.554688 482.253906 419.839844 480.15625 420.519531 C 478.371094 421.097656 476.53125 421.527344 474.242188 422.089844 C 473.511719 422.136719 473.289062 422.210938 473.105469 422.382812 C 473.097656 422.382812 473.007812 422.367188 472.960938 422.382812 Z M 472.960938 422.382812 " fill-opacity="1" fill-rule="nonzero"/><path fill="#303033" d="M 310.863281 400.351562 C 307.460938 389.058594 298.007812 387.464844 288.199219 385.710938 C 265.167969 381.605469 242.175781 377.226562 219.234375 372.621094 C 196.429688 368.046875 173.699219 363.148438 150.972656 358.226562 C 142.242188 356.339844 133.617188 353.984375 124.621094 351.855469 C 121.386719 349.792969 116.519531 349.613281 116.917969 344.089844 C 117.390625 343.726562 117.9375 343.488281 118.183594 343.667969 C 128.328125 350.921875 140.65625 352.035156 152.230469 354.644531 C 189.277344 363.011719 226.496094 370.589844 263.703125 378.261719 C 274.566406 380.503906 285.527344 382.515625 296.546875 383.726562 C 305.449219 384.703125 309.15625 389.925781 311.117188 397.464844 C 311.335938 398.34375 311.175781 399.332031 310.863281 400.351562 Z M 310.863281 400.351562 " fill-opacity="1" fill-rule="nonzero"/><path fill="#303033" d="M 314.816406 349.3125 C 314.496094 347.625 314.183594 345.847656 314.464844 344.164062 C 316.609375 331.359375 310.40625 321.261719 297.6875 317.996094 C 282.21875 314.03125 266.632812 310.472656 251.101562 306.746094 C 226.855469 300.929688 202.589844 295.199219 178.375 289.261719 C 164.238281 285.792969 150.183594 282 136.085938 278.375 C 135.4375 278.210938 134.730469 278.269531 133.714844 278.222656 C 131.898438 276.335938 127.71875 279.246094 127.558594 274.734375 C 130.871094 274.710938 134.332031 274.453125 137.445312 275.351562 C 175.503906 286.351562 214 295.589844 252.710938 304.054688 C 268.410156 307.492188 283.996094 311.433594 299.589844 315.308594 C 313.367188 318.742188 322.199219 335.367188 316.042969 348.039062 C 315.839844 348.503906 315.425781 348.859375 314.816406 349.3125 Z M 314.816406 349.3125 " fill-opacity="1" fill-rule="nonzero"/><path fill="#303033" d="M 126.605469 357.707031 C 128.679688 358.070312 130.488281 358.722656 132.363281 359.09375 C 150.375 362.644531 168.417969 366.066406 186.40625 369.722656 C 190.558594 370.566406 194.585938 373.351562 198.589844 373.199219 C 207.226562 372.875 214.824219 376.796875 223.085938 377.707031 C 225.566406 377.976562 228.007812 378.667969 230.417969 379.332031 C 230.929688 379.472656 231.226562 380.332031 231.625 380.867188 C 231.097656 380.925781 230.539062 381.128906 230.050781 381.03125 C 223.75 379.804688 217.441406 378.59375 211.164062 377.269531 C 203.070312 375.5625 195.027344 373.628906 186.917969 372.03125 C 174.140625 369.519531 161.324219 367.171875 148.515625 364.808594 C 142.0625 363.621094 135.582031 362.546875 128.777344 361.46875 C 126.148438 361.191406 125.675781 359.851562 126.605469 357.707031 Z M 126.605469 357.707031 " fill-opacity="1" fill-rule="nonzero"/><path fill="#303033" d="M 423.191406 269.652344 C 422.550781 270.917969 422 272.714844 420.917969 273.121094 C 400.304688 280.84375 379.628906 288.417969 358.933594 295.929688 C 357.394531 296.484375 355.585938 296.320312 353.90625 296.484375 C 355.171875 295.5 356.300781 294.160156 357.734375 293.589844 C 373.398438 287.320312 389.082031 281.121094 404.8125 275.035156 C 410.207031 272.941406 415.746094 271.210938 421.558594 269.269531 C 422.285156 269.324219 422.65625 269.4375 423.191406 269.652344 Z M 423.191406 269.652344 " fill-opacity="1" fill-rule="nonzero"/><path fill="#e5e1d7" d="M 473.265625 422.519531 C 473.289062 422.210938 473.511719 422.136719 473.945312 422.210938 C 473.894531 422.382812 473.664062 422.519531 473.265625 422.519531 Z M 473.265625 422.519531 " fill-opacity="1" fill-rule="nonzero"/><path fill="#303033" d="M 130.480469 398.515625 C 131.464844 398.796875 132.152344 399.113281 133.113281 399.488281 C 148.996094 411.015625 165.128906 421.652344 182.625 430.164062 C 185.164062 431.398438 187.566406 432.953125 189.917969 434.535156 C 190.582031 434.980469 190.824219 436.039062 191.257812 436.816406 C 190.289062 436.792969 189.144531 437.09375 188.382812 436.6875 C 181.65625 433.164062 174.828125 429.789062 168.359375 425.835938 C 155.992188 418.28125 143.824219 410.421875 131.632812 402.589844 C 130.351562 401.769531 127.597656 400.957031 130.480469 398.515625 Z M 130.480469 398.515625 " fill-opacity="1" fill-rule="nonzero"/><path fill="#303033" d="M 244.425781 461.164062 C 236.621094 457.964844 229.066406 454.96875 221.578125 451.816406 C 220.484375 451.359375 219.722656 450.164062 218.808594 449.304688 C 220.027344 449.328125 221.378906 449.019531 222.445312 449.425781 C 231.433594 452.847656 240.390625 456.347656 249.285156 459.980469 C 250.582031 460.515625 251.511719 461.914062 252.609375 462.914062 C 251.070312 462.90625 249.492188 463.101562 247.996094 462.832031 C 246.84375 462.636719 245.796875 461.847656 244.425781 461.164062 Z M 244.425781 461.164062 " fill-opacity="1" fill-rule="nonzero"/><path fill="#303033" d="M 415.234375 324.40625 C 395.453125 335.058594 375.976562 345.652344 356.417969 356.097656 C 354.753906 356.984375 352.546875 356.894531 350.59375 357.257812 C 352.015625 356.058594 353.265625 354.585938 354.867188 353.710938 C 376.601562 341.898438 398.367188 330.148438 420.1875 318.476562 C 421.894531 317.566406 424.007812 317.402344 425.9375 316.890625 C 424.457031 318.222656 423.09375 319.695312 421.476562 320.832031 C 419.597656 322.140625 417.515625 323.15625 415.234375 324.40625 Z M 415.234375 324.40625 " fill-opacity="1" fill-rule="nonzero"/><path fill="#303033" d="M 347.75 472.980469 C 346.492188 472.695312 345.574219 472.417969 344.652344 472.132812 C 345.414062 471.703125 346.125 471.09375 346.949219 470.867188 C 359.011719 467.488281 371.070312 464.113281 383.164062 460.839844 C 392.722656 458.25 402.296875 455.707031 411.917969 453.320312 C 419.1875 451.515625 426.511719 449.960938 433.839844 448.410156 C 434.488281 448.273438 435.328125 448.996094 436.085938 449.320312 C 435.464844 449.664062 434.894531 450.191406 434.230469 450.335938 C 429.5 451.359375 424.703125 452.125 420.019531 453.328125 C 415.433594 454.511719 411.007812 456.324219 406.414062 457.503906 C 398.207031 459.621094 389.875 461.28125 381.691406 463.472656 C 370.4375 466.480469 359.277344 469.800781 347.75 472.980469 Z M 347.75 472.980469 " fill-opacity="1" fill-rule="nonzero"/><path fill="#303033" d="M 425.382812 444.300781 C 415.066406 446.996094 405.074219 449.605469 395.035156 452.042969 C 390.914062 453.042969 386.6875 453.617188 382.539062 454.519531 C 381.035156 454.84375 379.628906 455.585938 378.152344 456.070312 C 377.816406 456.171875 377.371094 455.964844 376.976562 455.902344 C 377.28125 455.570312 377.523438 455.105469 377.90625 454.925781 C 380.652344 453.660156 383.324219 452.066406 386.222656 451.285156 C 403.089844 446.730469 419.996094 442.335938 436.914062 437.972656 C 441.730469 436.730469 446.613281 435.722656 451.488281 434.738281 C 452.234375 434.585938 453.128906 435.128906 453.949219 435.355469 C 453.332031 436.015625 452.828125 437.09375 452.082031 437.289062 C 443.300781 439.660156 434.480469 441.886719 425.382812 444.300781 Z M 425.382812 444.300781 " fill-opacity="1" fill-rule="nonzero"/><path fill="#303033" d="M 367.996094 472.410156 C 373.726562 470.988281 379.148438 469.605469 384.582031 468.273438 C 384.878906 468.195312 385.285156 468.527344 385.640625 468.679688 C 385.3125 468.933594 385.023438 469.316406 384.65625 469.417969 C 378.457031 471.046875 372.253906 472.6875 366.027344 474.214844 C 365.113281 474.441406 364.058594 474.117188 363.074219 474.050781 C 363.96875 473.644531 364.839844 473.179688 365.761719 472.847656 C 366.363281 472.628906 367.042969 472.589844 367.996094 472.410156 Z M 367.996094 472.410156 " fill-opacity="1" fill-rule="nonzero"/><path fill="#303033" d="M 272.996094 389.277344 C 276.558594 390.453125 279.882812 391.445312 283.179688 392.511719 C 283.707031 392.6875 284.125 393.183594 284.589844 393.527344 C 283.972656 393.605469 283.308594 393.859375 282.738281 393.730469 C 278.136719 392.714844 273.542969 391.648438 268.964844 390.558594 C 258.691406 388.113281 248.40625 385.660156 238.152344 383.136719 C 237.167969 382.898438 236.316406 382.128906 235.398438 381.609375 C 236.535156 381.386719 237.78125 380.738281 238.78125 381 C 249.09375 383.6875 259.363281 386.546875 269.660156 389.269531 C 270.605469 389.519531 271.714844 389.179688 272.996094 389.277344 Z M 272.996094 389.277344 " fill-opacity="1" fill-rule="nonzero"/><path fill="#303033" d="M 224.039062 384.148438 C 218.660156 383.019531 213.621094 381.988281 208.605469 380.804688 C 208.003906 380.664062 207.59375 379.722656 207.097656 379.152344 C 207.785156 379.007812 208.523438 378.617188 209.15625 378.753906 C 216.449219 380.265625 223.734375 381.800781 230.992188 383.476562 C 231.960938 383.703125 232.738281 384.761719 233.597656 385.433594 C 232.585938 385.515625 231.539062 385.808594 230.570312 385.644531 C 228.488281 385.289062 226.445312 384.695312 224.039062 384.148438 Z M 224.039062 384.148438 " fill-opacity="1" fill-rule="nonzero"/><path fill="#303033" d="M 282.914062 321.328125 C 286.246094 322.480469 289.320312 323.414062 292.25 324.660156 C 293.121094 325.03125 293.601562 326.292969 294.265625 327.152344 C 293.203125 327.761719 292.042969 329.003906 291.113281 328.851562 C 288.917969 328.515625 286.863281 327.410156 284.699219 326.785156 C 268.675781 322.179688 252.632812 317.648438 236.621094 313.023438 C 227.535156 310.398438 218.507812 307.597656 209.429688 304.957031 C 206.753906 304.175781 203.832031 304.046875 201.296875 302.96875 C 194.546875 300.109375 187.0625 300.230469 180.265625 297.664062 C 179.511719 297.378906 178.671875 297.253906 177.992188 296.847656 C 177.511719 296.558594 177.238281 295.933594 176.871094 295.460938 C 177.511719 295.222656 178.246094 294.65625 178.792969 294.792969 C 183.835938 296.046875 188.832031 297.507812 193.882812 298.75 C 199.828125 300.210938 205.816406 301.503906 211.773438 302.902344 C 216.832031 304.089844 222.140625 304.753906 226.808594 306.824219 C 228.679688 307.648438 230.226562 307.875 232.097656 308.246094 C 238.328125 309.480469 244.476562 311.179688 250.632812 312.78125 C 256.921875 314.414062 263.183594 316.160156 269.460938 317.832031 C 273.828125 318.996094 278.210938 320.101562 282.914062 321.328125 Z M 282.914062 321.328125 " fill-opacity="1" fill-rule="nonzero"/><path fill="#303033" d="M 254.410156 324.699219 C 248.011719 323 241.800781 321.601562 235.675781 319.914062 C 225.742188 317.175781 215.886719 314.1875 205.960938 311.433594 C 200.292969 309.863281 194.53125 308.605469 188.847656 307.078125 C 187.804688 306.800781 186.933594 305.882812 185.980469 305.265625 C 187.003906 305.09375 188.085938 304.625 189.046875 304.792969 C 193.800781 305.632812 198.566406 306.453125 203.246094 307.628906 C 218.699219 311.523438 234.148438 315.492188 249.550781 319.605469 C 259.300781 322.210938 269.179688 324.550781 278.578125 328.109375 C 284.195312 330.230469 290.121094 331.140625 295.5625 333.5625 C 296.53125 333.992188 297.070312 335.339844 297.8125 336.265625 C 296.589844 336.527344 295.253906 337.234375 294.171875 336.964844 C 289.671875 335.84375 284.539062 335.390625 280.972656 332.863281 C 277.046875 330.070312 272.757812 330.597656 268.792969 329.183594 C 264.144531 327.519531 259.363281 326.289062 254.410156 324.699219 Z M 254.410156 324.699219 " fill-opacity="1" fill-rule="nonzero"/><path fill="#303033" d="M 153.015625 306.550781 C 160.53125 307.636719 168.058594 308.671875 175.558594 309.886719 C 176.335938 310.011719 176.941406 311.1875 177.617188 311.871094 C 176.796875 311.960938 175.941406 312.238281 175.148438 312.121094 C 168.503906 311.074219 161.859375 310.003906 155.242188 308.792969 C 154.402344 308.644531 153.726562 307.648438 152.984375 306.800781 C 153 306.550781 153.015625 306.550781 153.015625 306.550781 Z M 153.015625 306.550781 " fill-opacity="1" fill-rule="nonzero"/><path fill="#303033" d="M 239.191406 326.046875 C 233.964844 324.820312 228.855469 323.84375 223.757812 322.8125 C 223.355469 322.726562 223.027344 322.246094 222.667969 321.953125 C 223.164062 321.667969 223.71875 321.074219 224.140625 321.15625 C 228.519531 321.992188 232.875 322.9375 237.230469 323.863281 C 238.007812 324.03125 238.832031 324.152344 239.550781 324.464844 C 240.640625 324.957031 241.664062 325.59375 242.714844 326.175781 C 241.578125 326.203125 240.441406 326.25 239.191406 326.046875 Z M 239.191406 326.046875 " fill-opacity="1" fill-rule="nonzero"/><path fill="#303033" d="M 152.984375 290.457031 C 153.910156 290.15625 155.199219 289.488281 156.289062 289.714844 C 160.40625 290.578125 164.472656 291.730469 168.546875 292.804688 C 169.097656 292.949219 169.59375 293.28125 170.121094 293.527344 C 169.507812 293.964844 168.953125 294.597656 168.273438 294.785156 C 167.746094 294.925781 167.066406 294.535156 166.457031 294.355469 C 162.054688 293.078125 157.652344 291.78125 152.984375 290.457031 Z M 152.984375 290.457031 " fill-opacity="1" fill-rule="nonzero"/><path fill="#303033" d="M 164.800781 299.246094 C 168.226562 299.96875 171.324219 300.59375 174.414062 301.285156 C 174.742188 301.359375 174.996094 301.765625 175.285156 302.023438 C 174.871094 302.144531 174.4375 302.421875 174.054688 302.359375 C 169.339844 301.511719 164.632812 300.621094 159.925781 299.710938 C 159.621094 299.652344 159.363281 299.335938 159.082031 299.140625 C 159.460938 298.929688 159.859375 298.515625 160.210938 298.546875 C 161.644531 298.675781 163.054688 298.953125 164.800781 299.246094 Z M 164.800781 299.246094 " fill-opacity="1" fill-rule="nonzero"/><path fill="#303033" d="M 208.796875 319.304688 C 207.296875 318.613281 206.097656 318.054688 204.890625 317.5 C 206.578125 317.386719 208.292969 317.003906 209.933594 317.222656 C 211.972656 317.492188 213.941406 318.25 215.929688 318.824219 C 216.625 319.019531 217.289062 319.296875 217.96875 319.539062 C 217.089844 319.9375 216.183594 320.742188 215.351562 320.667969 C 213.246094 320.464844 211.179688 319.875 208.796875 319.304688 Z M 208.796875 319.304688 " fill-opacity="1" fill-rule="nonzero"/><path fill="#303033" d="M 152.984375 306.542969 C 152.96875 306.535156 152.953125 306.402344 152.953125 306.402344 C 152.953125 306.402344 152.902344 306.589844 152.953125 306.574219 C 153.015625 306.550781 153 306.550781 152.984375 306.542969 Z M 152.984375 306.542969 " fill-opacity="1" fill-rule="nonzero"/><g fill="#000000" fill-opacity="1"><g transform="translate(783.896244, 431.15445)"><g><path d="M 35.90625 -87.078125 L 35.90625 -65.1875 L 71.203125 -65.1875 L 71.203125 -44.84375 L 35.90625 -44.84375 L 35.90625 -21.109375 L 75.828125 -21.109375 L 75.828125 0 L 9.5625 0 L 9.5625 -108.1875 L 75.828125 -108.1875 L 75.828125 -87.078125 Z M 35.90625 -87.078125 "/></g></g></g><g fill="#000000" fill-opacity="1"><g transform="translate(867.260213, 431.15445)"><g><path d="M 106.328125 0 L 79.984375 0 L 35.90625 -66.734375 L 35.90625 0 L 9.5625 0 L 9.5625 -108.1875 L 35.90625 -108.1875 L 79.984375 -41.140625 L 79.984375 -108.1875 L 106.328125 -108.1875 Z M 106.328125 0 "/></g></g></g><g fill="#000000" fill-opacity="1"><g transform="translate(983.137731, 431.15445)"><g><path d="M 81.375 -73.96875 C 79.414062 -77.5625 76.613281 -80.304688 72.96875 -82.203125 C 69.320312 -84.109375 65.035156 -85.0625 60.109375 -85.0625 C 51.578125 -85.0625 44.742188 -82.257812 39.609375 -76.65625 C 34.472656 -71.0625 31.90625 -63.59375 31.90625 -54.25 C 31.90625 -44.28125 34.597656 -36.492188 39.984375 -30.890625 C 45.378906 -25.296875 52.804688 -22.5 62.265625 -22.5 C 68.734375 -22.5 74.203125 -24.140625 78.671875 -27.421875 C 83.140625 -30.710938 86.398438 -35.441406 88.453125 -41.609375 L 55.015625 -41.609375 L 55.015625 -61.03125 L 112.34375 -61.03125 L 112.34375 -36.53125 C 110.394531 -29.945312 107.082031 -23.828125 102.40625 -18.171875 C 97.726562 -12.523438 91.789062 -7.957031 84.59375 -4.46875 C 77.40625 -0.976562 69.289062 0.765625 60.25 0.765625 C 49.570312 0.765625 40.046875 -1.566406 31.671875 -6.234375 C 23.296875 -10.910156 16.769531 -17.410156 12.09375 -25.734375 C 7.414062 -34.054688 5.078125 -43.5625 5.078125 -54.25 C 5.078125 -64.9375 7.414062 -74.460938 12.09375 -82.828125 C 16.769531 -91.203125 23.269531 -97.726562 31.59375 -102.40625 C 39.914062 -107.082031 49.421875 -109.421875 60.109375 -109.421875 C 73.046875 -109.421875 83.957031 -106.285156 92.84375 -100.015625 C 101.738281 -93.742188 107.625 -85.0625 110.5 -73.96875 Z M 81.375 -73.96875 "/></g></g></g><g fill="#000000" fill-opacity="1"><g transform="translate(1100.5561, 431.15445)"><g><path d="M 35.90625 -20.34375 L 70.421875 -20.34375 L 70.421875 0 L 9.5625 0 L 9.5625 -108.1875 L 35.90625 -108.1875 Z M 35.90625 -20.34375 "/></g></g></g><g fill="#000000" fill-opacity="1"><g transform="translate(1174.058156, 431.15445)"><g><path d="M 35.90625 -108.1875 L 35.90625 0 L 9.5625 0 L 9.5625 -108.1875 Z M 35.90625 -108.1875 "/></g></g></g><g fill="#000000" fill-opacity="1"><g transform="translate(1219.515431, 431.15445)"><g><path d="M 48.703125 1.078125 C 40.785156 1.078125 33.691406 -0.203125 27.421875 -2.765625 C 21.160156 -5.335938 16.15625 -9.140625 12.40625 -14.171875 C 8.65625 -19.210938 6.675781 -25.273438 6.46875 -32.359375 L 34.515625 -32.359375 C 34.929688 -28.359375 36.316406 -25.300781 38.671875 -23.1875 C 41.035156 -21.082031 44.117188 -20.03125 47.921875 -20.03125 C 51.828125 -20.03125 54.910156 -20.925781 57.171875 -22.71875 C 59.429688 -24.519531 60.5625 -27.015625 60.5625 -30.203125 C 60.5625 -32.878906 59.660156 -35.085938 57.859375 -36.828125 C 56.066406 -38.578125 53.859375 -40.015625 51.234375 -41.140625 C 48.617188 -42.273438 44.894531 -43.5625 40.0625 -45 C 33.082031 -47.15625 27.378906 -49.3125 22.953125 -51.46875 C 18.535156 -53.625 14.734375 -56.804688 11.546875 -61.015625 C 8.367188 -65.234375 6.78125 -70.734375 6.78125 -77.515625 C 6.78125 -87.585938 10.425781 -95.472656 17.71875 -101.171875 C 25.019531 -106.867188 34.523438 -109.71875 46.234375 -109.71875 C 58.148438 -109.71875 67.753906 -106.867188 75.046875 -101.171875 C 82.347656 -95.472656 86.253906 -87.535156 86.765625 -77.359375 L 58.25 -77.359375 C 58.039062 -80.859375 56.753906 -83.609375 54.390625 -85.609375 C 52.035156 -87.609375 49.007812 -88.609375 45.3125 -88.609375 C 42.125 -88.609375 39.550781 -87.757812 37.59375 -86.0625 C 35.644531 -84.375 34.671875 -81.9375 34.671875 -78.75 C 34.671875 -75.257812 36.3125 -72.535156 39.59375 -70.578125 C 42.882812 -68.628906 48.023438 -66.523438 55.015625 -64.265625 C 62.003906 -61.898438 67.679688 -59.640625 72.046875 -57.484375 C 76.410156 -55.328125 80.1875 -52.191406 83.375 -48.078125 C 86.5625 -43.972656 88.15625 -38.679688 88.15625 -32.203125 C 88.15625 -26.046875 86.585938 -20.445312 83.453125 -15.40625 C 80.316406 -10.375 75.769531 -6.367188 69.8125 -3.390625 C 63.851562 -0.410156 56.816406 1.078125 48.703125 1.078125 Z M 48.703125 1.078125 "/></g></g></g><g fill="#000000" fill-opacity="1"><g transform="translate(1314.282276, 431.15445)"><g><path d="M 103.25 -108.1875 L 103.25 0 L 76.90625 0 L 76.90625 -44.53125 L 35.90625 -44.53125 L 35.90625 0 L 9.5625 0 L 9.5625 -108.1875 L 35.90625 -108.1875 L 35.90625 -65.8125 L 76.90625 -65.8125 L 76.90625 -108.1875 Z M 103.25 -108.1875 "/></g></g></g></svg>