<svg xmlns="http://www.w3.org/2000/svg" xmlns:xlink="http://www.w3.org/1999/xlink" width="1920" zoomAndPan="magnify" viewBox="0 0 1440 809.999993" height="1080" preserveAspectRatio="xMidYMid meet" version="1.0"><defs><g/><clipPath id="ed6277c0ce"><path d="M 89.441406 267 L 377.78125 267 L 377.78125 542.96875 L 89.441406 542.96875 Z M 89.441406 267 " clip-rule="nonzero"/></clipPath></defs><path fill="#e76f51" d="M 387.707031 189.839844 C 423.5625 213.273438 445.304688 258.164062 455.46875 302.210938 C 465.628906 345.972656 464.21875 388.886719 457.441406 430.390625 C 450.949219 472.175781 439.375 512.550781 415.941406 547.558594 C 392.507812 582.566406 357.777344 612.214844 316.558594 627.742188 C 275.054688 643.550781 227.621094 645.246094 186.964844 630.28125 C 146.59375 615.035156 112.996094 583.132812 82.21875 548.125 C 51.445312 513.394531 23.210938 475.84375 12.199219 432.648438 C 0.90625 389.449219 6.554688 340.605469 26.316406 298.539062 C 46.082031 256.472656 79.960938 221.179688 120.054688 199.722656 C 159.863281 178.265625 206.164062 170.640625 254.160156 167.816406 C 302.160156 164.710938 351.851562 166.6875 387.707031 189.839844 Z M 387.707031 189.839844 " fill-opacity="1" fill-rule="nonzero"/><g clip-path="url(#ed6277c0ce)"><path fill="#000000" d="M 377.3125 539.019531 L 363.339844 510.972656 C 363.445312 510.238281 363.5 509.507812 363.5 508.792969 L 363.5 464.246094 C 363.5 460.066406 361.832031 456.058594 358.910156 453.054688 L 358.910156 391.945312 C 358.910156 379.632812 348.863281 369.613281 336.515625 369.613281 L 258.699219 369.613281 L 258.699219 313.648438 C 258.699219 301.335938 248.652344 291.316406 236.308594 291.316406 L 185.789062 291.316406 L 185.789062 283.730469 C 185.789062 274.859375 178.554688 267.644531 169.660156 267.644531 L 119.828125 267.644531 C 110.945312 267.644531 103.722656 274.859375 103.722656 283.730469 L 103.722656 328.253906 C 103.722656 328.96875 103.773438 329.699219 103.882812 330.433594 L 89.90625 358.480469 C 89.472656 359.355469 89.644531 360.414062 90.335938 361.101562 C 90.777344 361.542969 91.359375 361.773438 91.953125 361.773438 C 92.296875 361.773438 92.640625 361.699219 92.964844 361.539062 L 108.3125 353.96875 L 108.3125 401.539062 C 108.3125 413.847656 118.355469 423.867188 130.703125 423.867188 L 215.105469 423.867188 L 215.105469 479.832031 C 215.105469 492.148438 225.148438 502.167969 237.496094 502.167969 L 281.429688 502.167969 L 281.429688 508.796875 C 281.429688 517.667969 288.667969 524.882812 297.5625 524.882812 L 339.386719 524.882812 L 374.253906 542.078125 C 374.578125 542.238281 374.921875 542.316406 375.265625 542.316406 C 375.863281 542.316406 376.445312 542.085938 376.886719 541.648438 C 377.578125 540.949219 377.75 539.898438 377.3125 539.019531 Z M 195.042969 332.609375 L 235.164062 332.609375 C 236.425781 332.609375 237.449219 333.625 237.449219 334.886719 C 237.449219 336.148438 236.425781 337.164062 235.164062 337.164062 L 195.042969 337.164062 C 193.78125 337.164062 192.757812 336.148438 192.757812 334.886719 C 192.757812 333.625 193.78125 332.609375 195.042969 332.609375 Z M 127.300781 339.785156 C 126.949219 339.785156 126.601562 339.863281 126.285156 340.019531 L 97.011719 354.460938 L 108.300781 331.800781 C 108.527344 331.351562 108.59375 330.84375 108.5 330.351562 C 108.363281 329.636719 108.289062 328.929688 108.289062 328.253906 L 108.289062 283.730469 C 108.289062 277.371094 113.464844 272.199219 119.828125 272.199219 L 169.660156 272.199219 C 176.035156 272.199219 181.222656 277.371094 181.222656 283.730469 L 181.222656 328.253906 C 181.222656 334.613281 176.035156 339.785156 169.660156 339.785156 Z M 190.429688 378.246094 L 134.429688 378.246094 C 133.167969 378.246094 132.144531 377.230469 132.144531 375.96875 C 132.144531 374.707031 133.167969 373.691406 134.429688 373.691406 L 190.429688 373.691406 C 191.691406 373.691406 192.714844 374.707031 192.714844 375.96875 C 192.714844 377.230469 191.691406 378.246094 190.429688 378.246094 Z M 134.429688 358.96875 C 133.167969 358.96875 132.144531 357.953125 132.144531 356.691406 C 132.144531 355.429688 133.167969 354.414062 134.429688 354.414062 L 235.164062 354.414062 C 236.425781 354.414062 237.449219 355.429688 237.449219 356.691406 C 237.449219 357.953125 236.425781 358.96875 235.164062 358.96875 Z M 281.429688 497.605469 L 237.496094 497.605469 C 227.667969 497.605469 219.675781 489.632812 219.675781 479.832031 L 219.675781 391.945312 C 219.675781 382.144531 227.667969 374.171875 237.496094 374.171875 L 336.515625 374.171875 C 346.34375 374.171875 354.339844 382.144531 354.339844 391.945312 L 354.339844 449.761719 C 352.1875 448.730469 349.820312 448.179688 347.394531 448.179688 L 297.5625 448.179688 C 288.667969 448.179688 281.429688 455.386719 281.429688 464.246094 Z M 340.933594 520.558594 C 340.617188 520.40625 340.269531 520.324219 339.921875 520.324219 L 297.5625 520.324219 C 291.1875 520.324219 286 515.148438 286 508.789062 L 286 464.242188 C 286 457.898438 291.1875 452.734375 297.5625 452.734375 L 347.394531 452.734375 C 350.238281 452.734375 352.972656 453.78125 355.09375 455.679688 C 357.53125 457.875 358.929688 460.996094 358.929688 464.242188 L 358.929688 508.789062 C 358.929688 509.476562 358.863281 510.164062 358.722656 510.886719 C 358.625 511.378906 358.695312 511.886719 358.917969 512.335938 L 370.203125 534.992188 Z M 340.933594 520.558594 " fill-opacity="1" fill-rule="nonzero"/></g><path fill="#000000" d="M 242.910156 410.421875 L 335.902344 410.421875 C 337.160156 410.421875 338.183594 409.402344 338.183594 408.144531 C 338.183594 406.882812 337.160156 405.863281 335.902344 405.863281 L 242.910156 405.863281 C 241.648438 405.863281 240.625 406.882812 240.625 408.144531 C 240.625 409.402344 241.648438 410.421875 242.910156 410.421875 Z M 242.910156 410.421875 " fill-opacity="1" fill-rule="nonzero"/><path fill="#000000" d="M 310.085938 436.835938 C 311.328125 436.835938 312.347656 435.839844 312.371094 434.597656 C 312.390625 433.335938 311.386719 432.300781 310.125 432.277344 L 242.953125 431.113281 C 241.621094 431.121094 240.652344 432.09375 240.628906 433.351562 C 240.605469 434.609375 241.613281 435.648438 242.871094 435.671875 L 310.042969 436.835938 C 310.058594 436.835938 310.070312 436.835938 310.085938 436.835938 Z M 310.085938 436.835938 " fill-opacity="1" fill-rule="nonzero"/><path fill="#000000" d="M 347.484375 468.871094 L 326.738281 468.871094 L 326.738281 457.980469 C 326.738281 456.71875 325.714844 455.703125 324.453125 455.703125 C 323.191406 455.703125 322.167969 456.71875 322.167969 457.980469 L 322.167969 468.871094 L 302.292969 468.871094 C 301.03125 468.871094 300.007812 469.890625 300.007812 471.152344 C 300.007812 472.410156 301.03125 473.429688 302.292969 473.429688 L 333.9375 473.429688 C 332.582031 481.902344 329.582031 489.078125 324.972656 494.828125 C 320.953125 490.441406 317.777344 485.148438 315.621094 478.949219 C 315.207031 477.757812 313.90625 477.132812 312.714844 477.539062 C 311.523438 477.957031 310.890625 479.25 311.304688 480.4375 C 313.71875 487.390625 317.273438 493.375 321.859375 498.285156 C 317.035156 503.023438 310.746094 506.722656 303.097656 509.273438 C 301.902344 509.671875 301.253906 510.960938 301.65625 512.160156 C 301.976562 513.109375 302.867188 513.714844 303.824219 513.714844 C 304.0625 513.714844 304.308594 513.675781 304.546875 513.597656 C 312.925781 510.804688 319.84375 506.699219 325.179688 501.417969 C 329.820312 505.5 335.324219 508.777344 341.679688 511.070312 C 341.9375 511.164062 342.199219 511.207031 342.457031 511.207031 C 343.390625 511.207031 344.269531 510.632812 344.605469 509.707031 C 345.035156 508.523438 344.421875 507.214844 343.234375 506.789062 C 337.441406 504.695312 332.4375 501.730469 328.234375 498.039062 C 333.644531 491.445312 337.105469 483.1875 338.550781 473.425781 L 347.480469 473.425781 C 348.742188 473.425781 349.765625 472.410156 349.765625 471.148438 C 349.765625 469.890625 348.746094 468.871094 347.484375 468.871094 Z M 347.484375 468.871094 " fill-opacity="1" fill-rule="nonzero"/><path fill="#000000" d="M 147.457031 279.695312 C 147.117188 278.816406 146.269531 278.238281 145.328125 278.238281 C 144.382812 278.238281 143.535156 278.816406 143.195312 279.695312 L 124.527344 327.910156 C 124.074219 329.085938 124.660156 330.40625 125.835938 330.859375 C 127.015625 331.3125 128.335938 330.726562 128.792969 329.554688 L 133.1875 318.207031 L 157.46875 318.207031 L 161.863281 329.554688 C 162.210938 330.457031 163.078125 331.011719 163.992188 331.011719 C 164.269531 331.011719 164.546875 330.964844 164.816406 330.859375 C 165.992188 330.410156 166.578125 329.089844 166.125 327.914062 Z M 134.949219 313.648438 L 145.328125 286.84375 L 155.703125 313.648438 Z M 134.949219 313.648438 " fill-opacity="1" fill-rule="nonzero"/><g fill="#000000" fill-opacity="1"><g transform="translate(614.203799, 405.409015)"><g><path d="M 67.921875 -91.859375 L 67.921875 -73.9375 L 30.484375 -73.9375 L 30.484375 -54.5625 L 58.5 -54.5625 L 58.5 -37.171875 L 30.484375 -37.171875 L 30.484375 0 L 8.109375 0 L 8.109375 -91.859375 Z M 67.921875 -91.859375 "/></g></g></g><g fill="#000000" fill-opacity="1"><g transform="translate(685.776618, 405.409015)"><g><path d="M 51.5625 0.921875 C 42.925781 0.921875 35.007812 -1.082031 27.8125 -5.09375 C 20.613281 -9.113281 14.894531 -14.722656 10.65625 -21.921875 C 6.425781 -29.117188 4.3125 -37.207031 4.3125 -46.1875 C 4.3125 -55.175781 6.425781 -63.25 10.65625 -70.40625 C 14.894531 -77.5625 20.613281 -83.144531 27.8125 -87.15625 C 35.007812 -91.164062 42.925781 -93.171875 51.5625 -93.171875 C 60.195312 -93.171875 68.113281 -91.164062 75.3125 -87.15625 C 82.507812 -83.144531 88.175781 -77.5625 92.3125 -70.40625 C 96.457031 -63.25 98.53125 -55.175781 98.53125 -46.1875 C 98.53125 -37.207031 96.4375 -29.117188 92.25 -21.921875 C 88.0625 -14.722656 82.390625 -9.113281 75.234375 -5.09375 C 68.085938 -1.082031 60.195312 0.921875 51.5625 0.921875 Z M 51.5625 -19.5 C 58.882812 -19.5 64.75 -21.941406 69.15625 -26.828125 C 73.5625 -31.710938 75.765625 -38.164062 75.765625 -46.1875 C 75.765625 -54.300781 73.5625 -60.78125 69.15625 -65.625 C 64.75 -70.46875 58.882812 -72.890625 51.5625 -72.890625 C 44.144531 -72.890625 38.234375 -70.488281 33.828125 -65.6875 C 29.421875 -60.894531 27.21875 -54.394531 27.21875 -46.1875 C 27.21875 -38.082031 29.421875 -31.609375 33.828125 -26.765625 C 38.234375 -21.921875 44.144531 -19.5 51.5625 -19.5 Z M 51.5625 -19.5 "/></g></g></g><g fill="#000000" fill-opacity="1"><g transform="translate(788.621649, 405.409015)"><g><path d="M 54.96875 0 L 35.859375 -34.671875 L 30.484375 -34.671875 L 30.484375 0 L 8.109375 0 L 8.109375 -91.859375 L 45.671875 -91.859375 C 52.910156 -91.859375 59.082031 -90.59375 64.1875 -88.0625 C 69.289062 -85.539062 73.109375 -82.078125 75.640625 -77.671875 C 78.171875 -73.265625 79.4375 -68.351562 79.4375 -62.9375 C 79.4375 -56.832031 77.710938 -51.378906 74.265625 -46.578125 C 70.816406 -41.785156 65.734375 -38.382812 59.015625 -36.375 L 80.21875 0 Z M 30.484375 -50.515625 L 44.359375 -50.515625 C 48.460938 -50.515625 51.535156 -51.515625 53.578125 -53.515625 C 55.628906 -55.523438 56.65625 -58.363281 56.65625 -62.03125 C 56.65625 -65.519531 55.628906 -68.265625 53.578125 -70.265625 C 51.535156 -72.273438 48.460938 -73.28125 44.359375 -73.28125 L 30.484375 -73.28125 Z M 30.484375 -50.515625 "/></g></g></g><g fill="#000000" fill-opacity="1"><g transform="translate(873.933268, 405.409015)"><g><path d="M 30.484375 -73.9375 L 30.484375 -55.359375 L 60.453125 -55.359375 L 60.453125 -38.078125 L 30.484375 -38.078125 L 30.484375 -17.921875 L 64.390625 -17.921875 L 64.390625 0 L 8.109375 0 L 8.109375 -91.859375 L 64.390625 -91.859375 L 64.390625 -73.9375 Z M 30.484375 -73.9375 "/></g></g></g><g fill="#000000" fill-opacity="1"><g transform="translate(944.720973, 405.409015)"><g><path d="M 30.484375 -91.859375 L 30.484375 0 L 8.109375 0 L 8.109375 -91.859375 Z M 30.484375 -91.859375 "/></g></g></g><g fill="#000000" fill-opacity="1"><g transform="translate(983.320576, 405.409015)"><g><path d="M 69.09375 -62.8125 C 67.4375 -65.863281 65.054688 -68.195312 61.953125 -69.8125 C 58.859375 -71.425781 55.21875 -72.234375 51.03125 -72.234375 C 43.789062 -72.234375 37.988281 -69.851562 33.625 -65.09375 C 29.269531 -60.34375 27.09375 -54 27.09375 -46.0625 C 27.09375 -37.601562 29.378906 -30.992188 33.953125 -26.234375 C 38.535156 -21.484375 44.84375 -19.109375 52.875 -19.109375 C 58.363281 -19.109375 63.003906 -20.503906 66.796875 -23.296875 C 70.597656 -26.085938 73.367188 -30.097656 75.109375 -35.328125 L 46.71875 -35.328125 L 46.71875 -51.828125 L 95.390625 -51.828125 L 95.390625 -31.015625 C 93.734375 -25.429688 90.921875 -20.238281 86.953125 -15.4375 C 82.984375 -10.644531 77.945312 -6.765625 71.84375 -3.796875 C 65.738281 -0.828125 58.847656 0.65625 51.171875 0.65625 C 42.097656 0.65625 34.003906 -1.328125 26.890625 -5.296875 C 19.785156 -9.265625 14.242188 -14.78125 10.265625 -21.84375 C 6.296875 -28.914062 4.3125 -36.988281 4.3125 -46.0625 C 4.3125 -55.132812 6.296875 -63.222656 10.265625 -70.328125 C 14.242188 -77.441406 19.765625 -82.984375 26.828125 -86.953125 C 33.890625 -90.921875 41.957031 -92.90625 51.03125 -92.90625 C 62.03125 -92.90625 71.300781 -90.242188 78.84375 -84.921875 C 86.382812 -79.609375 91.378906 -72.238281 93.828125 -62.8125 Z M 69.09375 -62.8125 "/></g></g></g><g fill="#000000" fill-opacity="1"><g transform="translate(1083.025243, 405.409015)"><g><path d="M 90.296875 0 L 67.921875 0 L 30.484375 -56.65625 L 30.484375 0 L 8.109375 0 L 8.109375 -91.859375 L 30.484375 -91.859375 L 67.921875 -34.9375 L 67.921875 -91.859375 L 90.296875 -91.859375 Z M 90.296875 0 "/></g></g></g><g fill="#000000" fill-opacity="1"><g transform="translate(614.203799, 583.32061)"><g><path d="M 30.484375 -17.28125 L 59.796875 -17.28125 L 59.796875 0 L 8.109375 0 L 8.109375 -91.859375 L 30.484375 -91.859375 Z M 30.484375 -17.28125 "/></g></g></g><g fill="#000000" fill-opacity="1"><g transform="translate(676.617355, 583.32061)"><g><path d="M 65.296875 -16.234375 L 31.015625 -16.234375 L 25.515625 0 L 2.09375 0 L 35.328125 -91.859375 L 61.25 -91.859375 L 94.484375 0 L 70.796875 0 Z M 59.546875 -33.5 L 48.15625 -67.125 L 36.90625 -33.5 Z M 59.546875 -33.5 "/></g></g></g><g fill="#000000" fill-opacity="1"><g transform="translate(773.050883, 583.32061)"><g><path d="M 90.296875 0 L 67.921875 0 L 30.484375 -56.65625 L 30.484375 0 L 8.109375 0 L 8.109375 -91.859375 L 30.484375 -91.859375 L 67.921875 -34.9375 L 67.921875 -91.859375 L 90.296875 -91.859375 Z M 90.296875 0 "/></g></g></g><g fill="#000000" fill-opacity="1"><g transform="translate(871.447151, 583.32061)"><g><path d="M 69.09375 -62.8125 C 67.4375 -65.863281 65.054688 -68.195312 61.953125 -69.8125 C 58.859375 -71.425781 55.21875 -72.234375 51.03125 -72.234375 C 43.789062 -72.234375 37.988281 -69.851562 33.625 -65.09375 C 29.269531 -60.34375 27.09375 -54 27.09375 -46.0625 C 27.09375 -37.601562 29.378906 -30.992188 33.953125 -26.234375 C 38.535156 -21.484375 44.84375 -19.109375 52.875 -19.109375 C 58.363281 -19.109375 63.003906 -20.503906 66.796875 -23.296875 C 70.597656 -26.085938 73.367188 -30.097656 75.109375 -35.328125 L 46.71875 -35.328125 L 46.71875 -51.828125 L 95.390625 -51.828125 L 95.390625 -31.015625 C 93.734375 -25.429688 90.921875 -20.238281 86.953125 -15.4375 C 82.984375 -10.644531 77.945312 -6.765625 71.84375 -3.796875 C 65.738281 -0.828125 58.847656 0.65625 51.171875 0.65625 C 42.097656 0.65625 34.003906 -1.328125 26.890625 -5.296875 C 19.785156 -9.265625 14.242188 -14.78125 10.265625 -21.84375 C 6.296875 -28.914062 4.3125 -36.988281 4.3125 -46.0625 C 4.3125 -55.132812 6.296875 -63.222656 10.265625 -70.328125 C 14.242188 -77.441406 19.765625 -82.984375 26.828125 -86.953125 C 33.890625 -90.921875 41.957031 -92.90625 51.03125 -92.90625 C 62.03125 -92.90625 71.300781 -90.242188 78.84375 -84.921875 C 86.382812 -79.609375 91.378906 -72.238281 93.828125 -62.8125 Z M 69.09375 -62.8125 "/></g></g></g><g fill="#000000" fill-opacity="1"><g transform="translate(971.151817, 583.32061)"><g><path d="M 30.09375 -91.859375 L 30.09375 -36.90625 C 30.09375 -31.40625 31.445312 -27.171875 34.15625 -24.203125 C 36.863281 -21.242188 40.832031 -19.765625 46.0625 -19.765625 C 51.300781 -19.765625 55.316406 -21.242188 58.109375 -24.203125 C 60.898438 -27.171875 62.296875 -31.40625 62.296875 -36.90625 L 62.296875 -91.859375 L 84.671875 -91.859375 L 84.671875 -37.03125 C 84.671875 -28.832031 82.925781 -21.894531 79.4375 -16.21875 C 75.945312 -10.550781 71.253906 -6.273438 65.359375 -3.390625 C 59.472656 -0.515625 52.910156 0.921875 45.671875 0.921875 C 38.429688 0.921875 31.953125 -0.492188 26.234375 -3.328125 C 20.523438 -6.171875 16.007812 -10.445312 12.6875 -16.15625 C 9.375 -21.875 7.71875 -28.832031 7.71875 -37.03125 L 7.71875 -91.859375 Z M 30.09375 -91.859375 "/></g></g></g><g fill="#000000" fill-opacity="1"><g transform="translate(1063.398318, 583.32061)"><g><path d="M 65.296875 -16.234375 L 31.015625 -16.234375 L 25.515625 0 L 2.09375 0 L 35.328125 -91.859375 L 61.25 -91.859375 L 94.484375 0 L 70.796875 0 Z M 59.546875 -33.5 L 48.15625 -67.125 L 36.90625 -33.5 Z M 59.546875 -33.5 "/></g></g></g><g fill="#000000" fill-opacity="1"><g transform="translate(1159.831846, 583.32061)"><g><path d="M 69.09375 -62.8125 C 67.4375 -65.863281 65.054688 -68.195312 61.953125 -69.8125 C 58.859375 -71.425781 55.21875 -72.234375 51.03125 -72.234375 C 43.789062 -72.234375 37.988281 -69.851562 33.625 -65.09375 C 29.269531 -60.34375 27.09375 -54 27.09375 -46.0625 C 27.09375 -37.601562 29.378906 -30.992188 33.953125 -26.234375 C 38.535156 -21.484375 44.84375 -19.109375 52.875 -19.109375 C 58.363281 -19.109375 63.003906 -20.503906 66.796875 -23.296875 C 70.597656 -26.085938 73.367188 -30.097656 75.109375 -35.328125 L 46.71875 -35.328125 L 46.71875 -51.828125 L 95.390625 -51.828125 L 95.390625 -31.015625 C 93.734375 -25.429688 90.921875 -20.238281 86.953125 -15.4375 C 82.984375 -10.644531 77.945312 -6.765625 71.84375 -3.796875 C 65.738281 -0.828125 58.847656 0.65625 51.171875 0.65625 C 42.097656 0.65625 34.003906 -1.328125 26.890625 -5.296875 C 19.785156 -9.265625 14.242188 -14.78125 10.265625 -21.84375 C 6.296875 -28.914062 4.3125 -36.988281 4.3125 -46.0625 C 4.3125 -55.132812 6.296875 -63.222656 10.265625 -70.328125 C 14.242188 -77.441406 19.765625 -82.984375 26.828125 -86.953125 C 33.890625 -90.921875 41.957031 -92.90625 51.03125 -92.90625 C 62.03125 -92.90625 71.300781 -90.242188 78.84375 -84.921875 C 86.382812 -79.609375 91.378906 -72.238281 93.828125 -62.8125 Z M 69.09375 -62.8125 "/></g></g></g><g fill="#000000" fill-opacity="1"><g transform="translate(1259.536512, 583.32061)"><g><path d="M 30.484375 -73.9375 L 30.484375 -55.359375 L 60.453125 -55.359375 L 60.453125 -38.078125 L 30.484375 -38.078125 L 30.484375 -17.921875 L 64.390625 -17.921875 L 64.390625 0 L 8.109375 0 L 8.109375 -91.859375 L 64.390625 -91.859375 L 64.390625 -73.9375 Z M 30.484375 -73.9375 "/></g></g></g></svg>