<svg xmlns="http://www.w3.org/2000/svg" xmlns:xlink="http://www.w3.org/1999/xlink" width="1920" zoomAndPan="magnify" viewBox="0 0 1440 809.999993" height="1080" preserveAspectRatio="xMidYMid meet" version="1.0"><defs><g/><clipPath id="574f86bc0e"><path d="M 147.679688 167 L 507 167 L 507 674 L 147.679688 674 Z M 147.679688 167 " clip-rule="nonzero"/></clipPath></defs><path fill="#264653" d="M 543.566406 103.34375 C 593.835938 136.199219 624.316406 199.136719 638.566406 260.886719 C 652.816406 322.242188 650.835938 382.410156 641.335938 440.597656 C 632.234375 499.179688 616.003906 555.785156 583.148438 604.867188 C 550.292969 653.949219 501.605469 695.511719 443.816406 717.285156 C 385.628906 739.449219 319.128906 741.824219 262.128906 720.847656 C 205.523438 699.472656 158.417969 654.742188 115.273438 605.660156 C 72.128906 556.972656 32.542969 504.324219 17.105469 443.761719 C 1.273438 383.199219 9.1875 314.722656 36.898438 255.742188 C 64.605469 196.761719 112.105469 147.28125 168.316406 117.199219 C 224.128906 87.117188 289.042969 76.429688 356.335938 72.46875 C 423.628906 68.117188 493.292969 70.886719 543.566406 103.34375 Z M 543.566406 103.34375 " fill-opacity="1" fill-rule="nonzero"/><g clip-path="url(#574f86bc0e)"><path fill="#ffffff" d="M 248.378906 585.828125 C 247.558594 586.828125 246.886719 588.109375 246.332031 589.460938 C 245.769531 590.816406 245.304688 592.246094 244.898438 593.707031 C 244.085938 596.628906 243.492188 599.65625 242.976562 602.707031 C 241.964844 608.8125 241.289062 615.023438 240.6875 621.25 C 240.089844 627.484375 239.59375 633.742188 239.054688 640.023438 C 238.78125 643.164062 238.5 646.3125 238.160156 649.484375 C 237.988281 651.066406 237.804688 652.65625 237.578125 654.265625 C 237.34375 655.886719 237.105469 657.488281 236.667969 659.253906 C 236.242188 660.980469 234.496094 662.039062 232.769531 661.613281 C 231.78125 661.371094 231.015625 660.695312 230.617188 659.839844 L 230.59375 659.789062 C 225.277344 648.195312 220.039062 636.425781 215.414062 624.429688 C 213.101562 618.425781 210.917969 612.359375 209.035156 606.164062 C 208.101562 603.066406 207.234375 599.933594 206.546875 596.730469 C 206.203125 595.125 205.910156 593.503906 205.707031 591.839844 C 205.511719 590.175781 205.378906 588.480469 205.578125 586.652344 C 205.710938 585.621094 206.144531 584.8125 206.65625 584.410156 C 207.160156 583.996094 207.648438 584.015625 207.941406 584.234375 C 208.257812 584.460938 208.449219 584.832031 208.601562 585.242188 C 208.742188 585.652344 208.824219 586.160156 208.816406 586.917969 C 208.78125 588.277344 209 589.78125 209.300781 591.269531 C 209.601562 592.757812 209.996094 594.257812 210.429688 595.753906 C 211.304688 598.746094 212.351562 601.71875 213.449219 604.679688 C 215.664062 610.59375 218.125 616.449219 220.65625 622.28125 C 224.300781 630.660156 228.113281 638.957031 231.953125 647.285156 L 232.824219 639.417969 C 233.496094 633.160156 234.195312 626.875 235.0625 620.59375 C 235.9375 614.316406 236.953125 608.03125 238.394531 601.789062 C 239.128906 598.667969 239.960938 595.554688 241.058594 592.476562 C 241.613281 590.941406 242.234375 589.414062 243.003906 587.914062 C 243.769531 586.417969 244.667969 584.929688 245.96875 583.589844 C 246.875 582.699219 247.90625 582.292969 248.632812 582.3125 C 249.363281 582.316406 249.742188 582.644531 249.824219 583 C 249.917969 583.382812 249.765625 583.800781 249.523438 584.242188 C 249.269531 584.675781 248.925781 585.160156 248.378906 585.828125 Z M 271.359375 615.777344 C 272.035156 615.667969 272.71875 615.539062 273.394531 615.40625 C 274.078125 615.253906 274.773438 615.074219 275.453125 614.890625 C 276.84375 614.433594 278.234375 613.972656 279.578125 613.027344 C 280.335938 612.449219 278.78125 610.066406 278.191406 610.089844 C 276.078125 610.457031 273.566406 610.246094 271.042969 610.132812 C 268.503906 610.007812 265.882812 609.902344 263.210938 610.015625 C 260.539062 610.128906 257.808594 610.4375 255.089844 611.105469 C 252.386719 611.761719 249.65625 612.84375 247.285156 614.5 C 246.496094 615.109375 247.820312 617.582031 248.648438 617.496094 C 253.4375 616.515625 258.351562 616.730469 263.480469 616.472656 C 266.042969 616.359375 268.660156 616.195312 271.359375 615.777344 Z M 279.695312 623.464844 C 275.5 623.632812 271.460938 623.28125 267.214844 623.269531 C 262.988281 623.242188 258.558594 623.449219 254.082031 624.476562 C 253.328125 624.710938 253.347656 627.515625 254.0625 627.765625 C 258.328125 628.859375 262.636719 629.707031 267.167969 629.734375 C 271.648438 629.75 276.472656 628.980469 280.664062 626.566406 C 281.242188 626.171875 280.296875 623.503906 279.695312 623.464844 Z M 506.339844 338.671875 C 506.324219 338.960938 506.289062 339.285156 506.242188 339.644531 C 506.160156 339.992188 506.058594 340.371094 505.9375 340.78125 C 505.8125 341.191406 505.664062 341.636719 505.496094 342.109375 C 505.296875 342.566406 505.054688 343.046875 504.792969 343.554688 C 504.722656 343.691406 504.640625 343.824219 504.566406 343.960938 C 504.363281 355.265625 503.066406 366.554688 500.691406 377.613281 C 496.121094 398.824219 487.675781 419.195312 475.941406 437.46875 C 464.210938 455.746094 449.148438 471.9375 431.535156 484.746094 C 413.945312 497.574219 393.769531 506.933594 372.523438 511.886719 C 351.277344 516.894531 329.085938 517.441406 307.585938 514.183594 C 296.835938 512.542969 286.207031 510.09375 275.882812 506.726562 C 265.554688 503.367188 255.496094 499.269531 245.703125 494.628906 C 245.628906 494.59375 245.558594 494.558594 245.492188 494.519531 L 245.476562 494.511719 C 235.660156 488.742188 226.339844 482.144531 217.617188 474.839844 C 208.941406 467.476562 200.859375 459.417969 193.484375 450.753906 C 186.164062 442.046875 179.53125 432.757812 173.734375 422.964844 C 168 413.132812 163.039062 402.839844 159.097656 392.148438 C 155.214844 381.445312 152.195312 370.398438 150.421875 359.132812 C 150.011719 356.308594 149.550781 353.496094 149.296875 350.652344 C 149.15625 349.234375 148.972656 347.820312 148.867188 346.398438 L 148.597656 342.242188 C 148.5625 342.195312 148.523438 342.148438 148.488281 342.101562 C 148.28125 341.820312 148.109375 341.550781 147.976562 341.289062 C 147.910156 341.160156 147.851562 341.023438 147.800781 340.886719 C 147.773438 340.808594 147.746094 340.726562 147.730469 340.652344 C 147.710938 340.597656 147.703125 340.542969 147.695312 340.488281 C 147.6875 340.445312 147.675781 340.386719 147.679688 340.265625 C 147.695312 340.152344 147.695312 340.09375 147.761719 339.96875 C 147.824219 339.859375 147.941406 339.75 148.015625 339.71875 C 148.125 339.679688 148.292969 339.660156 148.332031 339.6875 C 148.382812 339.707031 148.425781 339.726562 148.460938 339.75 C 148.441406 339.117188 148.425781 338.484375 148.414062 337.851562 L 148.3125 333.574219 L 148.390625 329.292969 C 148.414062 327.867188 148.433594 326.441406 148.542969 325.019531 C 149.152344 313.609375 150.949219 302.328125 153.769531 291.285156 C 156.667969 280.261719 160.710938 269.535156 165.824219 259.347656 C 170.957031 249.164062 177.289062 239.605469 184.464844 230.761719 C 188.144531 226.417969 191.902344 222.128906 196.007812 218.1875 C 197.996094 216.144531 200.152344 214.289062 202.234375 212.351562 C 203.296875 211.40625 204.394531 210.507812 205.476562 209.582031 C 206.558594 208.664062 207.636719 207.734375 208.769531 206.875 L 212.125 204.25 C 213.253906 203.382812 214.421875 202.574219 215.566406 201.734375 C 217.839844 200.027344 220.238281 198.503906 222.589844 196.914062 C 227.382812 193.875 232.25 190.941406 237.308594 188.371094 C 247.351562 183.085938 257.925781 178.878906 268.730469 175.484375 C 274.160156 173.878906 279.617188 172.351562 285.167969 171.222656 C 290.707031 169.996094 296.371094 169.171875 302.015625 168.667969 C 309.496094 168 316.988281 167.867188 324.457031 168.101562 C 325.183594 167.773438 325.929688 167.480469 326.726562 167.273438 C 327.261719 167.167969 327.6875 167.601562 327.945312 168.171875 C 328.105469 168.199219 328.265625 168.230469 328.425781 168.257812 C 330.917969 168.378906 333.40625 168.53125 335.890625 168.722656 C 341.507812 169.164062 347.105469 169.777344 352.679688 170.535156 C 358.257812 171.261719 363.886719 172.324219 369.355469 173.679688 C 380.320312 176.410156 390.992188 180.023438 401.460938 184.125 C 408.332031 186.855469 413.328125 189.289062 416.5625 191.097656 C 418.171875 191.992188 419.371094 192.753906 420.128906 193.324219 C 420.886719 193.890625 421.203125 194.253906 421.105469 194.417969 C 421.296875 194.089844 422.742188 194.671875 425.441406 196.253906 C 426.785156 197.050781 428.460938 198.082031 430.40625 199.402344 C 432.292969 200.777344 434.464844 202.417969 436.914062 204.335938 C 453.5625 217.941406 468.414062 234.015625 479.671875 252.507812 C 490.976562 270.933594 498.777344 291.5625 502.3125 312.953125 C 503.675781 321.125 504.421875 329.394531 504.574219 337.679688 C 505.074219 337.023438 505.519531 336.703125 505.835938 336.789062 C 506.199219 336.890625 506.402344 337.507812 506.339844 338.671875 Z M 148.5 340.554688 C 148.496094 340.503906 148.492188 340.453125 148.488281 340.402344 C 148.445312 340.4375 148.425781 340.492188 148.417969 340.535156 C 148.398438 340.550781 148.449219 340.558594 148.5 340.554688 Z M 321.046875 508.859375 C 324.425781 506.570312 327.667969 504.074219 330.457031 501.078125 C 331.941406 499.679688 333.1875 498.039062 334.535156 496.511719 C 335.175781 495.714844 335.765625 494.875 336.386719 494.0625 C 337.003906 493.246094 337.617188 492.429688 338.164062 491.558594 L 339.859375 488.992188 C 340.398438 488.117188 340.90625 487.21875 341.433594 486.335938 C 342.511719 484.589844 343.414062 482.722656 344.398438 480.917969 C 346.226562 477.210938 347.96875 473.457031 349.5 469.589844 C 352.636719 461.902344 355.25 453.921875 357.855469 445.933594 C 360.410156 437.941406 362.839844 429.921875 364.902344 421.828125 C 366.980469 413.738281 368.742188 405.585938 369.984375 397.367188 C 370.328125 395.3125 370.554688 393.25 370.839844 391.195312 C 370.949219 390.160156 371.066406 389.125 371.179688 388.089844 C 368.949219 388.238281 366.71875 388.375 364.511719 388.496094 L 353.078125 389.183594 C 345.441406 389.660156 337.773438 390.144531 330.0625 390.402344 C 322.355469 390.675781 314.597656 390.695312 306.835938 390.304688 C 302.964844 390.085938 299.039062 389.777344 295.222656 389.34375 C 293.679688 389.183594 292.136719 389.003906 290.597656 388.824219 C 290.703125 390.222656 290.820312 391.621094 290.980469 393.023438 C 291.015625 393.925781 288.378906 394.882812 287.847656 394.035156 C 286.828125 392.152344 286.027344 390.1875 285.390625 388.1875 C 284.84375 388.117188 284.296875 388.050781 283.75 387.980469 C 268.480469 385.980469 253.316406 383.269531 238.296875 379.945312 C 230.789062 378.273438 223.324219 376.449219 215.890625 374.464844 C 208.453125 372.488281 201.058594 370.261719 193.769531 367.695312 C 186.480469 365.121094 179.320312 362.117188 172.40625 358.605469 C 166.410156 355.503906 160.605469 351.929688 155.1875 347.921875 C 155.265625 348.609375 155.34375 349.292969 155.414062 349.980469 C 155.667969 352.714844 156.125 355.425781 156.527344 358.144531 C 158.277344 368.992188 161.222656 379.640625 165 389.96875 C 168.835938 400.28125 173.65625 410.222656 179.222656 419.722656 C 184.851562 429.1875 191.289062 438.171875 198.386719 446.597656 C 205.542969 454.976562 213.375 462.777344 221.773438 469.902344 C 230.191406 476.941406 239.175781 483.296875 248.625 488.863281 C 258.128906 493.367188 267.875 497.335938 277.851562 500.597656 C 287.480469 503.75 297.359375 506.066406 307.335938 507.664062 C 306.746094 506.601562 306.257812 505.492188 305.890625 504.378906 C 304.652344 500.5625 304.488281 496.761719 304.820312 492.953125 C 304.925781 492.398438 307.707031 491.867188 308.011719 492.335938 C 309.761719 495.722656 310.976562 499.164062 312.023438 502.34375 C 312.746094 504.519531 313.425781 506.546875 314.308594 508.640625 C 316.339844 508.882812 318.375 509.101562 320.414062 509.273438 C 320.617188 509.136719 320.820312 509 321.046875 508.859375 Z M 286.644531 361.085938 C 286.65625 361.074219 286.671875 361.042969 286.679688 361.007812 L 286.628906 361.101562 Z M 499.339844 350.890625 C 498.660156 351.585938 497.960938 352.253906 497.230469 352.886719 C 494.230469 355.519531 490.925781 357.726562 487.523438 359.664062 C 484.121094 361.59375 480.609375 363.28125 477.128906 364.894531 C 473.644531 366.511719 470.128906 368.089844 466.558594 369.574219 C 459.425781 372.542969 452.082031 375.167969 444.488281 377.039062 C 442.597656 377.507812 440.660156 377.933594 438.78125 378.3125 L 433.136719 379.441406 C 429.371094 380.1875 425.597656 380.890625 421.816406 381.582031 C 407.109375 384.230469 392.261719 386.367188 377.304688 387.628906 C 377.195312 389.042969 377.066406 390.453125 376.945312 391.867188 C 376.695312 394 376.496094 396.140625 376.175781 398.257812 C 375.027344 406.765625 373.285156 415.164062 371.164062 423.433594 C 369.054688 431.710938 366.519531 439.851562 363.804688 447.902344 C 361.046875 455.925781 358.210938 463.953125 354.722656 471.804688 C 353.019531 475.738281 351.070312 479.585938 349.011719 483.375 C 347.90625 485.230469 346.890625 487.132812 345.671875 488.929688 C 345.078125 489.835938 344.503906 490.753906 343.890625 491.644531 L 341.976562 494.277344 C 341.355469 495.167969 340.664062 496.003906 339.964844 496.839844 C 339.265625 497.671875 338.59375 498.527344 337.871094 499.339844 C 336.351562 500.90625 334.9375 502.558594 333.269531 503.976562 C 331.050781 506.105469 328.582031 507.960938 326.007812 509.648438 C 341.140625 510.4375 356.363281 509.242188 371.113281 505.820312 C 391.5625 501.121094 411.007812 492.203125 428.039062 479.910156 C 445.089844 467.632812 459.746094 452.058594 471.222656 434.421875 C 482.710938 416.78125 491.046875 397.070312 495.648438 376.507812 C 497.519531 368.078125 498.75 359.507812 499.339844 350.890625 Z M 497.746094 313.691406 C 494.5 292.859375 487.113281 272.695312 476.261719 254.570312 C 472.226562 247.777344 467.6875 241.296875 462.742188 235.132812 C 460.535156 237.65625 458.355469 240.183594 456.023438 242.566406 C 453.097656 245.632812 449.929688 248.464844 446.785156 251.386719 C 446.207031 251.839844 443.78125 250.425781 444 249.632812 C 445.609375 245.175781 448.242188 241.351562 451.378906 238.074219 C 453.847656 235.558594 456.667969 233.335938 459.890625 231.667969 C 452.308594 222.683594 443.867188 214.40625 434.847656 206.847656 C 432.464844 204.917969 430.40625 203.195312 428.667969 201.683594 C 426.890625 200.25 425.417969 199.042969 424.269531 198.019531 C 421.964844 195.980469 420.910156 194.75 421.101562 194.421875 C 421.003906 194.585938 420.496094 194.550781 419.59375 194.316406 C 418.703125 194.082031 417.410156 193.65625 415.671875 193.03125 C 412.21875 191.785156 407.109375 189.785156 400.269531 187.195312 C 389.867188 183.265625 379.269531 179.820312 368.492188 177.265625 C 363.085938 175.992188 357.699219 175.039062 352.179688 174.375 C 348.398438 173.90625 344.613281 173.507812 340.820312 173.179688 C 341.476562 173.6875 342.109375 174.222656 342.710938 174.796875 C 344.746094 176.789062 346.367188 179 347.828125 181.246094 C 349.285156 183.496094 350.570312 185.800781 351.800781 188.078125 L 353.628906 191.496094 C 354.257812 192.679688 354.828125 193.882812 355.398438 195.089844 C 356.5 197.511719 357.484375 199.980469 358.371094 202.464844 C 360.15625 207.4375 361.527344 212.492188 362.777344 217.523438 C 367.589844 237.523438 371.902344 257.789062 373.757812 278.390625 C 373.996094 281.863281 371.210938 282.214844 370.496094 278.851562 C 366.578125 258.789062 361.292969 239.019531 356.503906 219.066406 C 355.277344 214.128906 354.015625 209.238281 352.453125 204.492188 C 351.671875 202.117188 350.828125 199.78125 349.890625 197.488281 C 349.410156 196.351562 348.925781 195.210938 348.398438 194.101562 L 346.761719 190.636719 C 345.667969 188.335938 344.578125 186.085938 343.375 183.9375 C 342.175781 181.796875 340.871094 179.75 339.359375 178.019531 C 337.839844 176.324219 336.019531 174.828125 333.976562 173.78125 C 333.023438 173.285156 332.003906 172.875 330.941406 172.5 C 329.074219 172.410156 327.210938 172.34375 325.34375 172.296875 C 324.898438 172.714844 324.460938 173.148438 324.039062 173.605469 C 322.835938 174.894531 321.695312 176.304688 320.546875 177.75 C 319.398438 179.199219 318.253906 180.6875 317.003906 182.1875 C 316.375 182.9375 315.738281 183.691406 315.015625 184.441406 L 314.039062 185.472656 C 313.734375 185.792969 313.414062 186.109375 313.125 186.441406 C 310.707031 189.035156 308.648438 191.792969 306.878906 194.867188 C 305.101562 197.933594 303.59375 201.332031 302.054688 204.8125 C 301.476562 205.957031 298.769531 205.222656 298.890625 203.910156 C 299.425781 200.082031 300.230469 196.195312 301.765625 192.402344 C 303.28125 188.613281 305.59375 185.027344 308.371094 182.0625 C 308.710938 181.675781 309.070312 181.324219 309.425781 180.964844 L 310.445312 179.949219 C 311.0625 179.351562 311.699219 178.683594 312.339844 178.019531 C 313.628906 176.679688 314.957031 175.28125 316.386719 173.925781 C 316.988281 173.351562 317.617188 172.785156 318.261719 172.230469 C 312.964844 172.273438 307.679688 172.523438 302.425781 173.042969 C 296.933594 173.59375 291.511719 174.433594 286.140625 175.675781 C 280.730469 176.828125 275.417969 178.371094 270.132812 179.980469 C 259.625 183.386719 249.359375 187.578125 239.632812 192.796875 C 234.734375 195.339844 230.027344 198.230469 225.394531 201.214844 C 223.125 202.777344 220.808594 204.273438 218.617188 205.945312 C 217.511719 206.769531 216.386719 207.5625 215.296875 208.410156 L 212.066406 210.980469 C 210.972656 211.820312 209.9375 212.726562 208.894531 213.625 C 207.855469 214.527344 206.792969 215.40625 205.773438 216.328125 C 203.773438 218.21875 201.695312 220.03125 199.792969 222.015625 C 195.847656 225.855469 192.25 230.023438 188.722656 234.242188 C 181.859375 242.824219 175.8125 252.070312 170.925781 261.914062 C 166.054688 271.761719 162.21875 282.113281 159.472656 292.761719 C 156.808594 303.421875 155.121094 314.363281 154.585938 325.316406 C 154.484375 326.683594 154.472656 328.058594 154.457031 329.429688 L 154.441406 330.449219 C 154.785156 330.167969 155.125 329.882812 155.480469 329.625 C 159.496094 326.792969 164.148438 325.359375 168.910156 325.289062 C 169.738281 325.339844 170.253906 328.101562 169.648438 328.496094 C 165.917969 330.496094 162.40625 332.65625 159.253906 334.871094 C 157.699219 336 156.253906 337.160156 155.0625 338.433594 C 154.882812 338.628906 154.722656 338.832031 154.554688 339.03125 C 154.585938 339.945312 154.625 340.863281 154.703125 341.777344 L 154.824219 343.558594 C 160.933594 348 167.417969 351.738281 174.195312 354.988281 C 181.019531 358.199219 188.074219 360.925781 195.273438 363.265625 C 209.675781 367.914062 224.574219 371.289062 239.476562 374.394531 C 254.175781 377.382812 268.976562 379.835938 283.851562 381.675781 C 283.632812 380.335938 283.460938 379.003906 283.328125 377.6875 L 283.152344 375.628906 L 283.082031 374.558594 L 283.046875 373.476562 C 283.023438 372.054688 283.054688 370.65625 283.144531 369.246094 C 283.234375 367.839844 283.378906 366.429688 283.605469 365.003906 C 283.71875 364.289062 283.851562 363.570312 284.027344 362.835938 C 284.117188 362.460938 284.210938 362.09375 284.339844 361.691406 C 284.484375 361.269531 284.566406 360.925781 284.933594 360.265625 C 285.105469 360.019531 285.222656 359.890625 285.632812 359.667969 C 285.894531 359.519531 286.496094 359.476562 286.75 359.652344 C 287.199219 360.023438 287.035156 360.453125 286.835938 360.753906 L 286.707031 360.964844 C 286.753906 361.054688 286.921875 361.265625 287.488281 361.519531 C 287.566406 361.546875 287.691406 361.625 287.792969 361.667969 L 287.867188 361.699219 L 287.875 361.707031 C 287.878906 361.71875 287.886719 361.71875 287.890625 361.730469 L 287.902344 361.867188 L 287.929688 362.253906 L 288.011719 363.152344 L 288.253906 365.089844 C 288.433594 366.421875 288.617188 367.746094 288.796875 369.070312 C 288.960938 370.402344 289.128906 371.730469 289.292969 373.0625 L 289.53125 375.003906 L 289.761719 377.046875 C 289.945312 378.859375 290.070312 380.644531 290.183594 382.425781 C 292.082031 382.636719 293.980469 382.839844 295.878906 383.027344 C 299.671875 383.433594 303.378906 383.703125 307.152344 383.898438 C 314.679688 384.246094 322.25 384.214844 329.839844 383.945312 C 337.433594 383.695312 345.046875 383.230469 352.691406 382.789062 L 364.179688 382.164062 C 366.714844 382.039062 369.222656 381.902344 371.722656 381.746094 C 371.925781 378.699219 372.03125 375.640625 372.15625 372.511719 C 372.796875 355.652344 373.382812 338.816406 373.566406 321.972656 C 373.667969 317.21875 376.496094 317.132812 376.816406 321.90625 C 377.699219 338.796875 377.914062 355.726562 377.808594 372.636719 C 377.785156 375.492188 377.761719 378.410156 377.660156 381.335938 C 392.105469 380.21875 406.507812 378.335938 420.859375 376.011719 C 424.621094 375.394531 428.378906 374.765625 432.136719 374.097656 L 437.769531 373.089844 C 439.644531 372.75 441.449219 372.390625 443.285156 371.980469 C 450.59375 370.347656 457.761719 367.984375 464.824219 365.261719 C 468.355469 363.902344 471.859375 362.441406 475.355469 360.9375 C 478.855469 359.433594 482.292969 357.902344 485.597656 356.160156 C 488.890625 354.417969 492.039062 352.445312 494.867188 350.121094 C 496.292969 348.976562 497.578125 347.691406 498.804688 346.359375 C 499.085938 346.027344 499.363281 345.691406 499.632812 345.351562 C 500.011719 334.769531 499.394531 324.15625 497.746094 313.691406 Z M 204.53125 310.792969 C 199.492188 310.757812 194.417969 311.34375 189.511719 312.945312 C 187.058594 313.75 184.632812 314.816406 182.332031 316.335938 C 181.183594 317.113281 180.058594 318.007812 179.054688 319.179688 C 178.558594 319.789062 178.085938 320.425781 177.726562 321.222656 C 177.351562 321.972656 177.132812 322.917969 177.148438 323.820312 C 177.289062 324.96875 180.152344 324.441406 180.375 324.199219 C 181.039062 323.050781 182.976562 322.109375 185.011719 321.3125 C 187.074219 320.527344 189.28125 319.816406 191.523438 319.085938 C 196.011719 317.625 200.597656 316.054688 205.210938 314.011719 C 205.988281 313.601562 205.382812 310.859375 204.53125 310.792969 Z M 245.207031 298.515625 C 239.90625 298.335938 234.449219 298.367188 229.019531 299.488281 C 226.304688 300.042969 223.585938 300.839844 220.945312 302.09375 C 219.625 302.726562 218.324219 303.476562 217.105469 304.429688 C 215.902344 305.390625 214.722656 306.542969 213.960938 308.066406 C 213.5625 309.015625 216.132812 310.269531 216.589844 309.972656 C 218.226562 308.679688 220.550781 308.003906 222.90625 307.398438 C 225.285156 306.808594 227.777344 306.332031 230.300781 305.820312 C 235.355469 304.78125 240.554688 303.710938 245.785156 301.757812 C 246.667969 301.347656 246.09375 298.601562 245.207031 298.515625 Z M 298.050781 294.898438 C 291.613281 292.503906 284.613281 291.679688 277.796875 292.148438 C 270.96875 292.625 264.289062 294.375 258.113281 297.152344 C 257.25 297.597656 258.023438 300.320312 258.960938 300.289062 C 265.511719 299.625 271.890625 299.035156 278.242188 298.597656 C 284.589844 298.175781 290.902344 297.894531 297.398438 298.125 C 298.496094 298.089844 299.128906 295.355469 298.050781 294.898438 Z M 410.570312 296.539062 C 406.273438 294.941406 401.871094 293.945312 397.554688 293.097656 C 398.0625 292.695312 398.558594 292.28125 399.046875 291.855469 C 401.007812 290.136719 402.832031 288.226562 404.4375 286.097656 C 406.03125 283.96875 407.441406 281.613281 408.339844 278.988281 C 408.554688 278.210938 406.027344 276.933594 405.519531 277.378906 C 403.898438 279.117188 402.097656 280.6875 400.285156 282.257812 C 398.449219 283.839844 396.621094 285.414062 394.792969 286.992188 C 393.078125 288.480469 391.382812 290.015625 389.699219 291.589844 C 389.679688 291.585938 389.660156 291.582031 389.640625 291.578125 C 386.28125 290.890625 382.703125 290.066406 378.9375 289.714844 C 375.199219 289.371094 371.117188 289.496094 367.40625 291.007812 C 366.355469 291.5 367.316406 294.167969 368.222656 294.152344 C 371.480469 293.871094 374.71875 294.488281 378.023438 295.292969 C 380.050781 295.792969 382.105469 296.375 384.226562 296.925781 C 384.144531 297.011719 384.0625 297.089844 383.980469 297.175781 C 383.421875 297.835938 384.9375 300.199219 385.789062 299.921875 C 387.121094 299.390625 388.421875 298.792969 389.691406 298.148438 C 396.578125 299.367188 403.265625 299.335938 409.871094 299.753906 C 411.0625 299.769531 411.730469 297.042969 410.570312 296.539062 Z M 453.648438 306.058594 C 451.113281 304.976562 448.6875 303.707031 446.121094 302.484375 C 443.566406 301.265625 440.859375 300.085938 437.894531 299.277344 C 434.828125 298.429688 431.707031 298.242188 428.78125 298.320312 C 425.832031 298.394531 422.992188 298.761719 420.230469 299.019531 C 419.457031 299.148438 419.066406 301.953125 419.894531 302.253906 C 425.714844 303.851562 431.363281 304.136719 436.199219 305.515625 C 438.738281 306.207031 441.375 307.066406 444.167969 307.8125 C 446.953125 308.554688 449.921875 309.175781 452.964844 309.28125 C 454.015625 309.25 454.476562 306.480469 453.648438 306.058594 Z M 485.824219 319.164062 C 483.800781 317.5 481.714844 315.824219 479.425781 314.285156 C 477.136719 312.757812 474.65625 311.34375 471.871094 310.34375 C 469.121094 309.359375 465.90625 308.769531 462.820312 309.515625 C 461.933594 309.765625 462.429688 312.5625 463.050781 312.757812 C 465.34375 313.148438 467.414062 314.222656 469.5 315.472656 C 471.578125 316.734375 473.652344 318.195312 475.816406 319.648438 C 477.980469 321.105469 480.234375 322.578125 482.679688 323.886719 C 485.121094 325.179688 487.761719 326.378906 490.699219 326.941406 C 491.722656 327.078125 492.507812 324.378906 491.851562 323.859375 C 489.78125 322.496094 487.847656 320.816406 485.824219 319.164062 Z M 296.828125 211.210938 C 294.992188 213.648438 293.605469 216.351562 292.519531 219.132812 C 291.4375 221.914062 290.660156 224.792969 290.175781 227.722656 C 289.699219 230.652344 289.503906 233.628906 289.640625 236.617188 C 289.78125 239.601562 290.238281 242.617188 291.234375 245.519531 C 291.632812 246.496094 294.375 245.898438 294.484375 244.988281 C 294.589844 242.269531 294.933594 239.558594 295.308594 236.859375 C 295.691406 234.160156 296.117188 231.464844 296.550781 228.773438 C 296.992188 226.078125 297.457031 223.386719 297.949219 220.703125 C 298.453125 218.015625 298.980469 215.332031 299.714844 212.695312 C 299.863281 211.929688 297.398438 210.539062 296.828125 211.210938 Z M 288.421875 283.296875 C 288.996094 284.109375 291.523438 282.886719 291.480469 282.085938 C 291.136719 279.730469 291.085938 277.300781 291.0625 274.878906 C 291.046875 272.457031 291.085938 270.035156 291.144531 267.617188 C 291.214844 265.195312 291.3125 262.785156 291.484375 260.390625 C 291.664062 258 291.894531 255.613281 292.480469 253.34375 C 292.578125 252.6875 290.179688 251.171875 289.621094 251.804688 C 287.820312 254.085938 286.699219 256.714844 285.925781 259.351562 C 285.164062 262.007812 284.765625 264.71875 284.683594 267.433594 C 284.613281 270.148438 284.847656 272.867188 285.425781 275.542969 C 286.011719 278.210938 286.914062 280.867188 288.421875 283.296875 Z M 286.722656 307.226562 C 284.484375 310.492188 283.046875 314.21875 282.101562 317.972656 C 281.160156 321.742188 280.707031 325.578125 280.601562 329.390625 C 280.445312 337.019531 281.597656 344.582031 283.941406 351.773438 C 284.402344 352.976562 287.152344 352.425781 287.179688 351.1875 C 286.972656 343.878906 286.925781 336.667969 287.0625 329.546875 C 287.15625 325.992188 287.316406 322.457031 287.664062 318.964844 C 288.023438 315.476562 288.550781 312.019531 289.617188 308.695312 C 289.847656 307.738281 287.398438 306.308594 286.722656 307.226562 Z M 293.746094 444.175781 C 292.859375 437.550781 291.761719 431.101562 290.734375 424.746094 C 290.238281 421.570312 289.769531 418.414062 289.449219 415.277344 C 289.140625 412.140625 288.957031 409.011719 289.316406 405.925781 C 289.339844 405.050781 286.691406 404.050781 286.207031 404.980469 C 284.671875 408.277344 284.015625 411.863281 283.796875 415.363281 C 283.585938 418.878906 283.824219 422.359375 284.351562 425.753906 C 285.441406 432.546875 287.652344 439.023438 290.59375 445.125 C 291.152344 446.136719 293.832031 445.304688 293.746094 444.175781 Z M 296.835938 457.105469 C 296.605469 456.429688 293.777344 456.410156 293.589844 457.164062 C 293.09375 459.792969 292.984375 462.535156 293.261719 465.226562 C 293.535156 467.917969 294.171875 470.542969 295.019531 473.015625 C 296.730469 477.980469 299.125 482.304688 301.5 486.753906 C 301.96875 487.480469 304.675781 486.742188 304.660156 485.835938 C 304.253906 480.558594 302.71875 475.527344 301.132812 470.925781 C 299.53125 466.296875 297.960938 461.960938 296.835938 457.105469 Z M 429.074219 266.429688 C 432.128906 263.488281 434.964844 260.328125 437.832031 257.039062 C 438.199219 256.527344 436.640625 254.167969 435.992188 254.359375 C 431.664062 256.0625 427.839844 258.652344 424.578125 261.785156 C 421.339844 264.9375 418.605469 268.675781 416.785156 272.96875 C 416.527344 273.730469 418.835938 275.324219 419.449219 274.898438 C 422.796875 272.121094 426.039062 269.394531 429.074219 266.429688 Z M 374.585938 301.839844 C 369.953125 304.082031 365.8125 307.039062 362.085938 310.253906 C 358.34375 313.476562 355.003906 316.96875 351.617188 320.589844 C 351.085938 321.253906 352.644531 323.589844 353.484375 323.300781 C 358.261719 321.300781 362.542969 318.402344 366.308594 315.144531 C 370.089844 311.875 373.382812 308.238281 376.582031 304.40625 C 376.992188 303.816406 375.277344 301.566406 374.585938 301.839844 Z M 332.925781 558.421875 C 333.398438 556.960938 330.792969 555.851562 330 557.007812 C 327.148438 561.554688 323.632812 565.667969 320.171875 570 C 316.722656 574.328125 313.226562 578.878906 310.59375 584.195312 L 310.566406 584.257812 C 310.496094 584.398438 310.4375 584.546875 310.386719 584.703125 C 309.859375 586.386719 310.796875 588.175781 312.480469 588.703125 C 315.375 589.613281 318.253906 589.582031 320.851562 589.242188 C 323.46875 588.898438 325.882812 588.234375 328.203125 587.519531 C 329.75 587.046875 331.261719 586.53125 332.75 586.03125 C 332.746094 586.109375 332.734375 586.183594 332.730469 586.261719 C 332.496094 589.171875 332.460938 592.183594 332.847656 595.226562 C 333.234375 598.257812 334.070312 601.339844 335.570312 604.082031 C 336.125 605.003906 338.71875 603.929688 338.683594 603.019531 C 338.007812 597.660156 338.75 592.390625 339.171875 586.78125 C 339.242188 585.886719 339.304688 584.980469 339.359375 584.070312 C 340.078125 583.90625 340.796875 583.757812 341.515625 583.648438 C 343.050781 583.386719 343.335938 580.582031 341.414062 580.359375 C 340.777344 580.320312 340.144531 580.304688 339.515625 580.316406 C 339.527344 579.597656 339.527344 578.878906 339.515625 578.15625 C 339.457031 575.214844 339.175781 572.1875 338.40625 569.238281 C 338.140625 568.398438 335.328125 568.71875 335.167969 569.496094 C 334.714844 573.292969 333.953125 577.046875 333.367188 580.933594 C 331.140625 581.292969 328.96875 581.734375 326.855469 582.136719 C 323.984375 582.699219 321.117188 583.171875 318.554688 583.160156 C 320.492188 579.917969 322.683594 576.707031 324.847656 573.390625 C 327.871094 568.742188 330.921875 563.851562 332.925781 558.421875 Z M 352.574219 619.738281 C 349 619.554688 345.441406 618.667969 341.691406 617.929688 C 339.820312 617.554688 337.894531 617.207031 335.886719 616.984375 C 334.882812 616.871094 333.859375 616.792969 332.808594 616.769531 C 331.757812 616.742188 330.878906 616.753906 329.90625 616.757812 C 322.300781 616.804688 314.550781 617.320312 306.933594 618.914062 C 305.652344 619.25 305.882812 622.042969 307.160156 622.199219 C 314.753906 622.730469 322.289062 623.273438 329.945312 623.21875 L 332.765625 623.179688 C 333.625 623.164062 334.507812 623.183594 335.410156 623.222656 C 337.207031 623.292969 339.070312 623.425781 340.976562 623.535156 C 344.78125 623.738281 348.855469 623.898438 352.894531 622.96875 C 354.046875 622.632812 353.5625 619.84375 352.574219 619.738281 Z M 341.921875 654.777344 C 340.9375 653.730469 339.769531 652.988281 338.613281 652.480469 C 337.976562 652.207031 337.34375 651.992188 336.710938 651.824219 C 337.808594 650.605469 338.835938 649.261719 339.707031 647.691406 C 340.273438 646.652344 340.777344 645.503906 341.046875 644.140625 C 341.320312 642.796875 341.292969 641.152344 340.675781 639.65625 C 340.53125 639.273438 340.347656 638.925781 340.136719 638.597656 C 339.941406 638.25 339.707031 637.957031 339.464844 637.671875 C 338.980469 637.089844 338.460938 636.640625 337.867188 636.222656 C 336.691406 635.398438 335.324219 634.925781 334.039062 634.761719 C 331.4375 634.433594 329.15625 635.027344 327.125 635.839844 C 325.09375 636.679688 323.273438 637.816406 321.632812 639.171875 C 320.007812 640.539062 318.519531 642.105469 317.472656 644.148438 C 316.910156 645.355469 317.5 646.265625 318.222656 646.4375 C 318.972656 646.625 319.777344 646.449219 320.285156 645.773438 C 321.195312 644.476562 322.566406 643.324219 324.023438 642.386719 C 325.488281 641.453125 327.089844 640.703125 328.691406 640.230469 C 330.285156 639.765625 331.925781 639.605469 333.164062 639.90625 C 333.78125 640.046875 334.265625 640.300781 334.644531 640.628906 C 335.042969 640.96875 335.308594 641.378906 335.378906 641.679688 C 335.460938 641.988281 335.464844 642.355469 335.324219 642.894531 C 335.179688 643.421875 334.882812 644.058594 334.484375 644.695312 C 333.683594 645.976562 332.542969 647.265625 331.277344 648.453125 C 330.015625 649.640625 328.617188 650.753906 327.167969 651.742188 C 326.957031 651.886719 326.742188 652.019531 326.527344 652.160156 C 324.941406 652.644531 323.363281 653.363281 321.785156 654.65625 C 320.808594 655.460938 320.355469 656.808594 320.753906 658.09375 C 321.28125 659.789062 323.078125 660.734375 324.773438 660.210938 L 324.804688 660.199219 C 326.152344 659.78125 327.132812 659.273438 328.109375 658.738281 C 328.5 658.519531 328.875 658.289062 329.246094 658.058594 C 329.398438 658.019531 329.550781 657.980469 329.703125 657.945312 C 331.199219 657.613281 332.796875 657.511719 334.246094 657.683594 C 335.691406 657.84375 336.964844 658.332031 337.621094 658.96875 C 337.960938 659.285156 338.191406 659.621094 338.355469 660.082031 C 338.429688 660.316406 338.484375 660.578125 338.519531 660.863281 C 338.53125 660.980469 338.523438 661.050781 338.542969 661.148438 C 338.527344 661.246094 338.523438 661.34375 338.515625 661.449219 C 338.398438 662.308594 337.542969 663.566406 336.351562 664.59375 C 335.175781 665.648438 333.71875 666.570312 332.183594 667.347656 C 330.640625 668.117188 329 668.742188 327.328125 669.175781 C 325.671875 669.589844 323.933594 669.847656 322.421875 669.648438 C 321.921875 669.585938 321.519531 669.671875 321.160156 669.828125 C 320.808594 669.984375 320.472656 670.238281 320.269531 670.5625 C 320.070312 670.882812 320.015625 671.289062 320.234375 671.742188 C 320.449219 672.183594 320.953125 672.617188 321.703125 672.859375 C 323.90625 673.460938 326.015625 673.375 328.066406 673.136719 C 330.113281 672.867188 332.101562 672.355469 334.035156 671.632812 C 335.964844 670.898438 337.851562 669.972656 339.625 668.65625 C 340.507812 667.992188 341.371094 667.242188 342.152344 666.292969 C 342.921875 665.347656 343.636719 664.195312 344.019531 662.773438 C 344.101562 662.417969 344.167969 662.046875 344.226562 661.675781 C 344.25 661.304688 344.277344 660.902344 344.269531 660.546875 C 344.242188 659.886719 344.15625 659.210938 343.988281 658.527344 C 343.648438 657.160156 342.90625 655.808594 341.921875 654.777344 Z M 405.023438 607.574219 C 394.867188 605.496094 384.582031 605.203125 374.316406 607.535156 C 373.453125 607.796875 373.523438 610.601562 374.382812 610.828125 C 376.394531 611.203125 378.40625 611.515625 380.421875 611.761719 C 378.90625 615.988281 377.347656 620.070312 375.523438 623.816406 C 373.171875 628.492188 370.480469 632.652344 365.625 634.554688 C 364.976562 634.875 365.195312 637.703125 366.15625 637.757812 C 369.425781 637.796875 372.828125 636.449219 375.402344 634.324219 C 378.011719 632.203125 379.929688 629.492188 381.316406 626.679688 C 383.582031 622.027344 384.597656 617.085938 384.808594 612.171875 C 386.496094 612.289062 388.183594 612.355469 389.871094 612.359375 C 389.167969 614.0625 388.75 615.839844 388.480469 617.613281 C 388.058594 620.65625 388.148438 623.761719 388.90625 626.84375 C 389.285156 628.382812 389.832031 629.914062 390.632812 631.394531 C 391.4375 632.867188 392.511719 634.3125 393.992188 635.46875 C 395.453125 636.628906 397.382812 637.40625 399.257812 637.460938 C 401.140625 637.539062 402.832031 636.988281 404.234375 636.238281 C 405.191406 635.648438 403.996094 633.097656 403.1875 633.117188 C 401.960938 633.257812 400.824219 633.167969 399.941406 632.828125 C 399.050781 632.492188 398.390625 631.960938 397.792969 631.253906 C 396.59375 629.828125 395.753906 627.621094 395.179688 625.296875 C 394.601562 622.957031 394.265625 620.441406 394.125 617.914062 C 394.035156 616.023438 394.027344 614.070312 394.304688 612.242188 C 397.878906 612.042969 401.457031 611.585938 405.042969 610.820312 C 405.765625 610.609375 405.746094 607.78125 405.023438 607.574219 Z M 437.289062 604.164062 C 436.699219 604.046875 436.046875 604.007812 435.425781 604.035156 C 434.796875 604.113281 434.144531 604.183594 433.578125 604.425781 C 432.367188 604.808594 431.425781 605.507812 430.554688 606.210938 C 428.898438 607.679688 427.789062 609.375 426.847656 611.074219 C 425.925781 612.785156 425.21875 614.539062 424.621094 616.316406 C 424.566406 616.484375 424.523438 616.652344 424.46875 616.820312 C 424.289062 615.179688 424.261719 613.554688 424.476562 611.953125 C 424.640625 610.566406 422.015625 609.449219 421.324219 611.171875 C 420.527344 613.507812 420.261719 615.960938 420.257812 618.339844 C 420.257812 620.726562 420.515625 623.0625 420.875 625.339844 C 421.277344 627.90625 421.832031 630.410156 422.363281 632.847656 C 422.363281 632.851562 422.363281 632.859375 422.367188 632.863281 C 422.523438 634.804688 422.742188 636.757812 423.679688 639.019531 L 423.699219 639.058594 C 424.265625 640.433594 425.753906 641.25 427.261719 640.925781 C 428.957031 640.5625 430.039062 638.890625 429.675781 637.195312 C 429.46875 636.234375 429.230469 635.308594 428.988281 634.390625 C 428.902344 633.769531 428.835938 633.117188 428.800781 632.460938 C 428.71875 630.910156 428.75 629.292969 428.851562 627.671875 C 429.078125 624.433594 429.558594 621.148438 430.363281 618.019531 C 430.765625 616.457031 431.238281 614.917969 431.828125 613.488281 C 432.425781 612.074219 433.140625 610.734375 433.984375 609.761719 C 434.410156 609.320312 434.839844 608.878906 435.28125 608.675781 C 435.714844 608.398438 436.15625 608.328125 436.679688 608.308594 C 437.738281 608.328125 439.089844 609.003906 440.324219 609.957031 C 441.671875 610.988281 443.925781 609.285156 442.59375 607.574219 C 441.308594 606.171875 439.703125 604.722656 437.289062 604.164062 Z M 352.652344 283.910156 C 353.75 284.023438 354.976562 284.636719 356.128906 285.5 C 357.378906 286.425781 359.640625 284.722656 358.394531 283.109375 C 357.199219 281.777344 355.679688 280.480469 353.617188 279.835938 C 352.605469 279.488281 351.464844 279.417969 350.355469 279.507812 C 349.8125 279.578125 349.269531 279.699219 348.742188 279.839844 C 348.253906 280.027344 347.710938 280.1875 347.261719 280.433594 C 345.382812 281.367188 343.929688 282.695312 342.703125 284.089844 C 341.480469 285.496094 340.46875 287 339.617188 288.558594 C 338.984375 289.726562 338.441406 290.925781 337.941406 292.140625 C 337.414062 289.648438 337.125 287.171875 337.425781 284.765625 C 337.558594 283.492188 334.9375 282.371094 334.273438 283.980469 C 333.519531 286.164062 333.257812 288.449219 333.246094 290.667969 C 333.234375 292.890625 333.464844 295.066406 333.789062 297.183594 C 334.210938 299.957031 334.824219 302.652344 335.378906 305.246094 C 335.441406 306.6875 335.664062 308.207031 336.363281 309.910156 L 336.378906 309.945312 C 336.945312 311.328125 338.4375 312.144531 339.949219 311.820312 C 341.644531 311.453125 342.722656 309.78125 342.355469 308.085938 C 342.21875 307.457031 342.058594 306.863281 341.90625 306.257812 C 341.808594 305.574219 341.761719 304.777344 341.796875 303.964844 C 341.84375 302.59375 342.035156 301.144531 342.308594 299.707031 C 342.855469 296.820312 343.769531 293.933594 344.960938 291.261719 C 346.152344 288.628906 347.75 286.101562 349.660156 284.75 C 350.613281 284.070312 351.558594 283.789062 352.652344 283.910156 Z M 464.136719 593.183594 C 462.730469 592.011719 461.121094 591.488281 459.632812 591.277344 C 460.226562 590.1875 460.746094 589.015625 461.101562 587.726562 C 461.542969 586.140625 461.71875 584.351562 461.414062 582.601562 L 461.378906 582.386719 C 461.203125 581.382812 460.453125 580.527344 459.398438 580.269531 C 457.621094 579.832031 455.761719 580.042969 454.25 580.625 C 452.71875 581.203125 451.460938 582.082031 450.394531 583.066406 C 448.289062 585.054688 446.8125 587.445312 446.074219 590.183594 C 445.757812 591.933594 448.613281 592.261719 449.132812 591.277344 C 450.074219 589.421875 451.625 587.75 453.292969 586.652344 C 454.027344 586.167969 454.789062 585.808594 455.511719 585.613281 C 455.175781 586.628906 454.632812 587.667969 453.925781 588.707031 C 452.671875 590.546875 451.011719 592.304688 449.226562 594.078125 C 448.125 595.171875 447.941406 596.929688 448.863281 598.238281 C 449.894531 599.695312 451.910156 600.039062 453.367188 599.011719 L 453.394531 598.992188 C 454.671875 598.089844 456.878906 597.402344 458.519531 597.453125 C 459.351562 597.464844 460.007812 597.644531 460.359375 597.878906 C 460.523438 598.011719 460.691406 598.125 460.824219 598.351562 C 460.984375 598.542969 461.058594 598.886719 461.179688 599.164062 C 461.304688 599.675781 461.285156 600.039062 460.882812 600.695312 C 460.476562 601.320312 459.707031 602 458.8125 602.597656 C 456.980469 603.792969 454.710938 604.734375 452.394531 605.523438 C 450.855469 606.09375 451.3125 608.867188 453.109375 608.734375 C 455.730469 608.410156 458.371094 607.894531 461.03125 606.71875 C 462.355469 606.101562 463.71875 605.324219 464.9375 603.992188 C 465.226562 603.628906 465.535156 603.292969 465.785156 602.871094 C 466.015625 602.429688 466.265625 601.996094 466.441406 601.515625 C 466.582031 601.019531 466.71875 600.507812 466.800781 599.992188 C 466.824219 599.488281 466.828125 598.972656 466.8125 598.457031 C 466.664062 597.503906 466.496094 596.582031 466.03125 595.65625 C 465.609375 594.738281 464.929688 593.882812 464.136719 593.183594 Z M 342.96875 326.246094 C 338.347656 327.996094 334.289062 330.574219 330.828125 333.890625 C 330.070312 333.574219 329.0625 333.234375 328.214844 333.113281 C 327.011719 332.945312 325.824219 332.910156 324.8125 333.121094 C 321.570312 333.792969 318.515625 336.175781 318.015625 340.1875 C 317.570312 343.765625 319.660156 347.332031 322.769531 349.148438 C 331.164062 353.199219 337.671875 344.96875 334.980469 338.367188 C 338.835938 335.90625 342.144531 332.753906 344.914062 328.847656 C 345.175781 328.378906 343.484375 326.109375 342.96875 326.246094 Z M 342.96875 326.246094 " fill-opacity="1" fill-rule="nonzero"/></g><g fill="#000000" fill-opacity="1"><g transform="translate(893.828457, 460.907289)"><g><path d="M 157.234375 -128.796875 L 157.234375 0 L 125.859375 0 L 125.859375 -77.234375 L 97.0625 0 L 71.734375 0 L 42.75 -77.421875 L 42.75 0 L 11.375 0 L 11.375 -128.796875 L 48.4375 -128.796875 L 84.578125 -39.625 L 120.359375 -128.796875 Z M 157.234375 -128.796875 "/></g></g></g><g fill="#000000" fill-opacity="1"><g transform="translate(1062.232452, 460.907289)"><g><path d="M 91.546875 -22.75 L 43.484375 -22.75 L 35.78125 0 L 2.9375 0 L 49.53125 -128.796875 L 85.859375 -128.796875 L 132.46875 0 L 99.25 0 Z M 83.484375 -46.96875 L 67.515625 -94.125 L 51.734375 -46.96875 Z M 83.484375 -46.96875 "/></g></g></g><g fill="#000000" fill-opacity="1"><g transform="translate(1197.432556, 460.907289)"><g><path d="M 104.03125 -128.796875 L 104.03125 -103.65625 L 69.90625 -103.65625 L 69.90625 0 L 38.53125 0 L 38.53125 -103.65625 L 4.40625 -103.65625 L 4.40625 -128.796875 Z M 104.03125 -128.796875 "/></g></g></g><g fill="#000000" fill-opacity="1"><g transform="translate(1305.849429, 460.907289)"><g><path d="M 122.921875 -128.796875 L 122.921875 0 L 91.546875 0 L 91.546875 -53.015625 L 42.75 -53.015625 L 42.75 0 L 11.375 0 L 11.375 -128.796875 L 42.75 -128.796875 L 42.75 -78.34375 L 91.546875 -78.34375 L 91.546875 -128.796875 Z M 122.921875 -128.796875 "/></g></g></g></svg>