<svg xmlns="http://www.w3.org/2000/svg" xmlns:xlink="http://www.w3.org/1999/xlink" width="1920" zoomAndPan="magnify" viewBox="0 0 1440 809.999993" height="1080" preserveAspectRatio="xMidYMid meet" version="1.0"><defs><g/><clipPath id="3bde0485e0"><path d="M 64.796875 180 L 483.835938 180 L 483.835938 630 L 64.796875 630 Z M 64.796875 180 " clip-rule="nonzero"/></clipPath></defs><path fill="#2a9d8f" d="M 456.585938 151.613281 C 498.8125 179.210938 524.414062 232.078125 536.386719 283.949219 C 548.355469 335.484375 546.691406 386.023438 538.714844 434.898438 C 531.066406 484.109375 517.433594 531.65625 489.835938 572.886719 C 462.238281 614.113281 421.34375 649.027344 372.796875 667.3125 C 323.921875 685.933594 268.0625 687.929688 220.183594 670.304688 C 172.636719 652.351562 133.070312 614.78125 96.828125 573.550781 C 60.585938 532.652344 27.335938 488.433594 14.367188 437.558594 C 1.070312 386.6875 7.71875 329.167969 30.992188 279.625 C 54.269531 230.082031 94.167969 188.523438 141.382812 163.25 C 188.265625 137.980469 242.792969 129.003906 299.316406 125.679688 C 355.839844 122.023438 414.359375 124.351562 456.585938 151.613281 Z M 456.585938 151.613281 " fill-opacity="1" fill-rule="nonzero"/><g clip-path="url(#3bde0485e0)"><path fill="#ffffff" d="M 468.910156 467.363281 C 468.007812 467.367188 467.117188 467.445312 466.230469 467.605469 C 465.34375 467.765625 464.476562 468.003906 463.632812 468.316406 C 462.789062 468.628906 461.980469 469.015625 461.203125 469.472656 C 460.425781 469.933594 459.699219 470.453125 459.015625 471.042969 C 458.332031 471.628906 457.707031 472.273438 457.136719 472.972656 C 456.570312 473.667969 456.066406 474.414062 455.628906 475.199219 C 455.191406 475.988281 454.828125 476.808594 454.539062 477.660156 C 454.246094 478.515625 454.035156 479.386719 453.898438 480.277344 L 380.90625 480.277344 L 352.34375 430.804688 L 380.898438 381.34375 L 453.496094 381.34375 C 453.613281 381.960938 453.769531 382.566406 453.960938 383.160156 C 454.152344 383.757812 454.378906 384.335938 454.640625 384.90625 C 454.90625 385.472656 455.203125 386.019531 455.535156 386.550781 C 455.867188 387.082031 456.226562 387.589844 456.621094 388.078125 C 457.015625 388.5625 457.4375 389.023438 457.890625 389.457031 C 458.339844 389.890625 458.816406 390.292969 459.316406 390.667969 C 459.820312 391.042969 460.339844 391.386719 460.882812 391.695312 C 461.429688 392.007812 461.988281 392.28125 462.566406 392.523438 C 463.144531 392.765625 463.734375 392.96875 464.335938 393.136719 C 464.9375 393.304688 465.546875 393.433594 466.167969 393.527344 C 466.785156 393.621094 467.410156 393.671875 468.035156 393.6875 C 468.660156 393.703125 469.28125 393.683594 469.90625 393.621094 C 470.527344 393.558594 471.144531 393.460938 471.753906 393.320312 C 472.367188 393.183594 472.964844 393.007812 473.554688 392.796875 C 474.140625 392.585938 474.714844 392.339844 475.273438 392.054688 C 475.832031 391.773438 476.371094 391.457031 476.890625 391.109375 C 477.410156 390.757812 477.902344 390.378906 478.375 389.96875 C 478.847656 389.558594 479.292969 389.121094 479.710938 388.652344 C 480.128906 388.1875 480.515625 387.699219 480.875 387.1875 C 481.230469 386.671875 481.554688 386.140625 481.847656 385.585938 C 482.140625 385.03125 482.394531 384.460938 482.617188 383.878906 C 482.835938 383.292969 483.023438 382.695312 483.167969 382.085938 C 483.316406 381.480469 483.425781 380.863281 483.496094 380.242188 C 483.570312 379.621094 483.601562 378.996094 483.597656 378.371094 C 483.589844 377.746094 483.546875 377.125 483.464844 376.503906 C 483.378906 375.882812 483.261719 375.269531 483.101562 374.664062 C 482.941406 374.058594 482.746094 373.46875 482.515625 372.886719 C 482.285156 372.304688 482.019531 371.742188 481.714844 371.191406 C 481.414062 370.644531 481.082031 370.117188 480.714844 369.609375 C 480.347656 369.101562 479.949219 368.621094 479.523438 368.164062 C 479.097656 367.703125 478.644531 367.273438 478.164062 366.875 C 477.6875 366.472656 477.183594 366.101562 476.65625 365.761719 C 476.132812 365.421875 475.589844 365.117188 475.023438 364.84375 C 474.460938 364.570312 473.882812 364.332031 473.292969 364.132812 C 472.699219 363.933594 472.097656 363.769531 471.484375 363.640625 C 470.871094 363.515625 470.253906 363.425781 469.628906 363.375 C 469.007812 363.328125 468.382812 363.316406 467.757812 363.34375 C 467.132812 363.367188 466.511719 363.433594 465.894531 363.539062 C 465.277344 363.640625 464.667969 363.785156 464.070312 363.960938 C 463.46875 364.140625 462.882812 364.355469 462.308594 364.609375 C 461.738281 364.859375 461.183594 365.144531 460.644531 365.464844 C 460.105469 365.785156 459.589844 366.136719 459.097656 366.519531 C 458.605469 366.90625 458.136719 367.316406 457.691406 367.761719 C 457.25 368.203125 456.835938 368.667969 456.449219 369.160156 C 456.066406 369.65625 455.710938 370.167969 455.390625 370.707031 C 455.066406 371.242188 454.78125 371.796875 454.527344 372.371094 C 454.273438 372.941406 454.058594 373.527344 453.875 374.125 C 453.695312 374.726562 453.554688 375.332031 453.449219 375.949219 L 380.898438 375.949219 L 350.785156 323.792969 L 290.558594 323.792969 L 261.996094 274.3125 L 297.96875 210.296875 C 298.558594 210.519531 299.15625 210.703125 299.765625 210.855469 C 300.375 211.003906 300.992188 211.113281 301.613281 211.1875 C 302.238281 211.257812 302.863281 211.292969 303.492188 211.289062 C 304.121094 211.28125 304.746094 211.238281 305.367188 211.15625 C 305.988281 211.074219 306.605469 210.957031 307.210938 210.796875 C 307.820312 210.640625 308.414062 210.445312 309 210.214844 C 309.582031 209.980469 310.148438 209.714844 310.699219 209.414062 C 311.25 209.109375 311.78125 208.777344 312.289062 208.410156 C 312.796875 208.042969 313.28125 207.644531 313.742188 207.21875 C 314.203125 206.789062 314.632812 206.335938 315.039062 205.855469 C 315.441406 205.375 315.816406 204.871094 316.15625 204.34375 C 316.496094 203.820312 316.804688 203.273438 317.078125 202.707031 C 317.355469 202.144531 317.59375 201.566406 317.796875 200.96875 C 317.996094 200.375 318.164062 199.773438 318.289062 199.15625 C 318.417969 198.542969 318.507812 197.921875 318.558594 197.296875 C 318.609375 196.671875 318.621094 196.046875 318.597656 195.417969 C 318.570312 194.789062 318.503906 194.167969 318.402344 193.546875 C 318.296875 192.929688 318.15625 192.320312 317.980469 191.71875 C 317.800781 191.113281 317.585938 190.527344 317.332031 189.953125 C 317.082031 189.375 316.796875 188.820312 316.476562 188.277344 C 316.15625 187.738281 315.800781 187.222656 315.417969 186.726562 C 315.035156 186.230469 314.621094 185.757812 314.175781 185.3125 C 313.734375 184.867188 313.265625 184.453125 312.773438 184.066406 C 312.277344 183.679688 311.761719 183.324219 311.222656 183 C 310.683594 182.675781 310.128906 182.386719 309.554688 182.132812 C 308.980469 181.878906 308.394531 181.660156 307.792969 181.476562 C 307.191406 181.296875 306.582031 181.152344 305.964844 181.042969 C 305.347656 180.9375 304.722656 180.871094 304.097656 180.839844 C 303.46875 180.808594 302.84375 180.820312 302.21875 180.867188 C 301.589844 180.914062 300.96875 181 300.355469 181.125 C 299.738281 181.25 299.136719 181.414062 298.539062 181.613281 C 297.945312 181.8125 297.363281 182.046875 296.796875 182.316406 C 296.230469 182.589844 295.683594 182.894531 295.15625 183.230469 C 294.628906 183.570312 294.121094 183.941406 293.640625 184.34375 C 293.15625 184.742188 292.699219 185.171875 292.269531 185.632812 C 291.839844 186.089844 291.441406 186.570312 291.070312 187.078125 C 290.703125 187.585938 290.363281 188.113281 290.058594 188.664062 C 289.753906 189.210938 289.484375 189.777344 289.25 190.359375 C 289.015625 190.941406 288.816406 191.535156 288.65625 192.140625 C 288.496094 192.75 288.371094 193.363281 288.285156 193.984375 C 288.199219 194.605469 288.152344 195.230469 288.144531 195.859375 C 288.136719 196.488281 288.167969 197.113281 288.238281 197.738281 C 288.308594 198.359375 288.414062 198.976562 288.558594 199.589844 C 288.707031 200.199219 288.886719 200.796875 289.109375 201.386719 C 289.328125 201.972656 289.582031 202.546875 289.875 203.101562 C 290.164062 203.660156 290.488281 204.195312 290.84375 204.710938 C 291.199219 205.230469 291.589844 205.722656 292.003906 206.191406 C 292.421875 206.660156 292.867188 207.101562 293.339844 207.515625 L 257.3125 271.636719 L 197.105469 271.636719 L 166.992188 323.792969 L 94.941406 323.792969 C 94.828125 323.175781 94.679688 322.570312 94.492188 321.972656 C 94.308594 321.375 94.085938 320.792969 93.828125 320.222656 C 93.570312 319.652344 93.277344 319.101562 92.949219 318.566406 C 92.625 318.035156 92.265625 317.523438 91.875 317.035156 C 91.488281 316.542969 91.070312 316.082031 90.621094 315.644531 C 90.175781 315.207031 89.703125 314.796875 89.203125 314.417969 C 88.707031 314.039062 88.1875 313.691406 87.648438 313.375 C 87.109375 313.0625 86.550781 312.78125 85.976562 312.535156 C 85.398438 312.289062 84.8125 312.078125 84.210938 311.902344 C 83.609375 311.730469 83 311.59375 82.382812 311.496094 C 81.765625 311.398438 81.144531 311.339844 80.519531 311.316406 C 79.894531 311.296875 79.269531 311.3125 78.644531 311.367188 C 78.023438 311.425781 77.40625 311.519531 76.792969 311.652344 C 76.183594 311.78125 75.582031 311.953125 74.992188 312.160156 C 74.398438 312.363281 73.824219 312.605469 73.265625 312.882812 C 72.703125 313.160156 72.164062 313.472656 71.640625 313.816406 C 71.117188 314.160156 70.617188 314.539062 70.144531 314.941406 C 69.667969 315.347656 69.21875 315.785156 68.796875 316.246094 C 68.375 316.707031 67.980469 317.191406 67.621094 317.703125 C 67.257812 318.210938 66.929688 318.742188 66.632812 319.292969 C 66.335938 319.84375 66.074219 320.410156 65.847656 320.996094 C 65.621094 321.578125 65.429688 322.171875 65.277344 322.78125 C 65.125 323.386719 65.011719 324 64.933594 324.621094 C 64.855469 325.242188 64.816406 325.863281 64.816406 326.488281 C 64.816406 327.117188 64.855469 327.738281 64.933594 328.359375 C 65.011719 328.980469 65.125 329.59375 65.277344 330.199219 C 65.429688 330.808594 65.621094 331.402344 65.847656 331.984375 C 66.074219 332.570312 66.335938 333.136719 66.632812 333.6875 C 66.929688 334.238281 67.257812 334.769531 67.621094 335.277344 C 67.980469 335.789062 68.375 336.273438 68.796875 336.734375 C 69.21875 337.195312 69.667969 337.632812 70.144531 338.039062 C 70.617188 338.441406 71.117188 338.820312 71.640625 339.164062 C 72.164062 339.507812 72.703125 339.820312 73.265625 340.097656 C 73.824219 340.375 74.402344 340.617188 74.992188 340.820312 C 75.582031 341.027344 76.183594 341.199219 76.792969 341.328125 C 77.40625 341.460938 78.023438 341.554688 78.644531 341.613281 C 79.269531 341.667969 79.894531 341.683594 80.519531 341.664062 C 81.144531 341.640625 81.765625 341.582031 82.382812 341.484375 C 83 341.386719 83.609375 341.25 84.210938 341.078125 C 84.8125 340.902344 85.398438 340.691406 85.976562 340.445312 C 86.550781 340.199219 87.109375 339.917969 87.648438 339.605469 C 88.1875 339.289062 88.707031 338.941406 89.203125 338.5625 C 89.703125 338.183594 90.175781 337.773438 90.621094 337.335938 C 91.070312 336.898438 91.488281 336.4375 91.875 335.945312 C 92.265625 335.457031 92.625 334.945312 92.949219 334.414062 C 93.277344 333.878906 93.570312 333.328125 93.828125 332.757812 C 94.085938 332.1875 94.308594 331.605469 94.492188 331.007812 C 94.679688 330.410156 94.828125 329.804688 94.941406 329.1875 L 166.992188 329.1875 L 197.105469 381.34375 L 257.332031 381.34375 L 285.886719 430.804688 L 255.773438 482.960938 L 285.898438 535.136719 L 249.738281 599.484375 C 249.148438 599.269531 248.546875 599.089844 247.933594 598.945312 C 247.324219 598.800781 246.703125 598.699219 246.082031 598.632812 C 245.457031 598.566406 244.828125 598.539062 244.199219 598.550781 C 243.570312 598.558594 242.945312 598.609375 242.324219 598.699219 C 241.703125 598.789062 241.089844 598.914062 240.480469 599.078125 C 239.875 599.242188 239.28125 599.445312 238.699219 599.683594 C 238.117188 599.917969 237.550781 600.191406 237.003906 600.5 C 236.457031 600.808594 235.929688 601.148438 235.425781 601.519531 C 234.917969 601.894531 234.4375 602.296875 233.980469 602.730469 C 233.523438 603.160156 233.097656 603.621094 232.699219 604.105469 C 232.296875 604.589844 231.929688 605.097656 231.59375 605.628906 C 231.257812 606.160156 230.957031 606.710938 230.6875 607.277344 C 230.417969 607.84375 230.183594 608.429688 229.988281 609.023438 C 229.792969 609.621094 229.632812 610.230469 229.511719 610.84375 C 229.390625 611.460938 229.308594 612.082031 229.261719 612.710938 C 229.21875 613.335938 229.210938 613.964844 229.246094 614.59375 C 229.277344 615.21875 229.347656 615.84375 229.457031 616.460938 C 229.570312 617.082031 229.714844 617.691406 229.902344 618.289062 C 230.085938 618.890625 230.308594 619.476562 230.566406 620.050781 C 230.824219 620.625 231.117188 621.179688 231.441406 621.714844 C 231.769531 622.253906 232.128906 622.765625 232.519531 623.261719 C 232.90625 623.753906 233.328125 624.21875 233.773438 624.660156 C 234.222656 625.101562 234.695312 625.511719 235.195312 625.894531 C 235.695312 626.277344 236.214844 626.628906 236.757812 626.945312 C 237.296875 627.261719 237.859375 627.546875 238.433594 627.796875 C 239.011719 628.042969 239.601562 628.257812 240.207031 628.433594 C 240.808594 628.609375 241.421875 628.746094 242.039062 628.847656 C 242.660156 628.945312 243.285156 629.007812 243.914062 629.03125 C 244.542969 629.054688 245.167969 629.039062 245.792969 628.984375 C 246.421875 628.929688 247.042969 628.835938 247.65625 628.707031 C 248.269531 628.574219 248.875 628.40625 249.46875 628.199219 C 250.0625 627.992188 250.640625 627.753906 251.203125 627.472656 C 251.769531 627.195312 252.3125 626.886719 252.839844 626.539062 C 253.363281 626.195312 253.867188 625.820312 254.34375 625.414062 C 254.824219 625.007812 255.277344 624.570312 255.699219 624.109375 C 256.125 623.644531 256.519531 623.160156 256.886719 622.648438 C 257.25 622.136719 257.582031 621.601562 257.882812 621.050781 C 258.179688 620.496094 258.445312 619.929688 258.671875 619.34375 C 258.902344 618.757812 259.09375 618.160156 259.25 617.550781 C 259.402344 616.941406 259.519531 616.328125 259.597656 615.703125 C 259.675781 615.078125 259.71875 614.453125 259.71875 613.824219 C 259.71875 613.195312 259.683594 612.570312 259.605469 611.945312 C 259.53125 611.324219 259.414062 610.707031 259.261719 610.097656 C 259.109375 609.488281 258.921875 608.890625 258.695312 608.300781 C 258.46875 607.714844 258.207031 607.144531 257.910156 606.59375 C 257.613281 606.039062 257.285156 605.503906 256.921875 604.992188 C 256.558594 604.480469 256.164062 603.988281 255.742188 603.523438 C 255.320312 603.0625 254.867188 602.625 254.390625 602.214844 L 290.585938 537.816406 L 350.789062 537.816406 L 380.894531 485.671875 L 454.058594 485.671875 C 454.253906 486.605469 454.535156 487.507812 454.902344 488.390625 C 455.269531 489.269531 455.714844 490.105469 456.238281 490.902344 C 456.761719 491.695312 457.355469 492.4375 458.019531 493.121094 C 458.683594 493.804688 459.40625 494.417969 460.183594 494.96875 C 460.964844 495.515625 461.785156 495.984375 462.65625 496.378906 C 463.523438 496.769531 464.421875 497.078125 465.347656 497.300781 C 466.273438 497.527344 467.210938 497.660156 468.164062 497.707031 C 469.113281 497.757812 470.0625 497.714844 471.003906 497.582031 C 471.949219 497.453125 472.871094 497.234375 473.773438 496.929688 C 474.675781 496.625 475.542969 496.238281 476.371094 495.769531 C 477.203125 495.300781 477.980469 494.757812 478.710938 494.144531 C 479.4375 493.53125 480.101562 492.851562 480.703125 492.113281 C 481.300781 491.371094 481.828125 490.582031 482.28125 489.746094 C 482.730469 488.90625 483.101562 488.03125 483.386719 487.125 C 483.675781 486.214844 483.875 485.289062 483.988281 484.34375 C 484.101562 483.398438 484.125 482.449219 484.058594 481.5 C 483.992188 480.546875 483.839844 479.613281 483.597656 478.691406 C 483.355469 477.769531 483.03125 476.878906 482.621094 476.019531 C 482.210938 475.15625 481.722656 474.34375 481.160156 473.574219 C 480.597656 472.804688 479.96875 472.097656 479.273438 471.445312 C 478.574219 470.796875 477.824219 470.21875 477.019531 469.707031 C 476.214844 469.199219 475.367188 468.769531 474.480469 468.421875 C 473.59375 468.074219 472.683594 467.808594 471.746094 467.632812 C 470.8125 467.453125 469.867188 467.363281 468.914062 467.363281 Z M 303.335938 186.308594 C 303.980469 186.308594 304.617188 186.371094 305.246094 186.496094 C 305.878906 186.621094 306.488281 186.808594 307.082031 187.054688 C 307.675781 187.300781 308.242188 187.601562 308.773438 187.957031 C 309.308594 188.316406 309.804688 188.722656 310.257812 189.175781 C 310.710938 189.628906 311.117188 190.125 311.476562 190.660156 C 311.832031 191.195312 312.132812 191.757812 312.378906 192.351562 C 312.625 192.945312 312.8125 193.558594 312.9375 194.1875 C 313.0625 194.816406 313.125 195.453125 313.125 196.097656 C 313.125 196.738281 313.0625 197.375 312.9375 198.007812 C 312.8125 198.636719 312.625 199.25 312.378906 199.84375 C 312.132812 200.4375 311.832031 201 311.476562 201.535156 C 311.117188 202.070312 310.710938 202.5625 310.257812 203.019531 C 309.804688 203.472656 309.308594 203.878906 308.773438 204.234375 C 308.242188 204.59375 307.675781 204.894531 307.082031 205.140625 C 306.488281 205.386719 305.878906 205.570312 305.246094 205.695312 C 304.617188 205.820312 303.980469 205.882812 303.335938 205.882812 C 302.695312 205.882812 302.058594 205.820312 301.425781 205.695312 C 300.796875 205.570312 300.183594 205.386719 299.589844 205.140625 C 298.996094 204.894531 298.433594 204.59375 297.898438 204.234375 C 297.363281 203.878906 296.871094 203.472656 296.417969 203.019531 C 295.960938 202.5625 295.554688 202.070312 295.199219 201.535156 C 294.84375 201 294.539062 200.4375 294.292969 199.84375 C 294.046875 199.25 293.863281 198.636719 293.738281 198.007812 C 293.613281 197.375 293.550781 196.738281 293.550781 196.097656 C 293.550781 195.453125 293.613281 194.816406 293.738281 194.1875 C 293.863281 193.558594 294.050781 192.945312 294.296875 192.351562 C 294.542969 191.757812 294.84375 191.195312 295.203125 190.660156 C 295.558594 190.128906 295.964844 189.632812 296.417969 189.179688 C 296.875 188.726562 297.367188 188.320312 297.902344 187.960938 C 298.4375 187.605469 299 187.304688 299.59375 187.058594 C 300.1875 186.8125 300.796875 186.625 301.429688 186.5 C 302.058594 186.375 302.695312 186.308594 303.335938 186.308594 Z M 244.535156 623.535156 C 243.894531 623.535156 243.257812 623.472656 242.628906 623.347656 C 241.996094 623.222656 241.382812 623.039062 240.789062 622.792969 C 240.195312 622.546875 239.632812 622.246094 239.097656 621.886719 C 238.5625 621.53125 238.070312 621.125 237.613281 620.671875 C 237.160156 620.214844 236.753906 619.722656 236.398438 619.1875 C 236.039062 618.652344 235.738281 618.089844 235.492188 617.496094 C 235.246094 616.902344 235.0625 616.289062 234.9375 615.660156 C 234.808594 615.027344 234.746094 614.390625 234.746094 613.75 C 234.746094 613.105469 234.808594 612.46875 234.933594 611.839844 C 235.0625 611.210938 235.246094 610.597656 235.492188 610.003906 C 235.738281 609.410156 236.039062 608.847656 236.398438 608.3125 C 236.753906 607.777344 237.160156 607.28125 237.613281 606.828125 C 238.066406 606.375 238.5625 605.96875 239.097656 605.609375 C 239.632812 605.253906 240.195312 604.953125 240.789062 604.707031 C 241.382812 604.460938 241.996094 604.273438 242.625 604.148438 C 243.253906 604.023438 243.890625 603.960938 244.535156 603.960938 C 245.175781 603.960938 245.8125 604.023438 246.445312 604.148438 C 247.074219 604.273438 247.6875 604.460938 248.28125 604.707031 C 248.875 604.953125 249.4375 605.253906 249.972656 605.609375 C 250.507812 605.96875 251 606.375 251.457031 606.828125 C 251.910156 607.28125 252.316406 607.777344 252.671875 608.3125 C 253.03125 608.84375 253.332031 609.410156 253.578125 610.003906 C 253.824219 610.597656 254.007812 611.207031 254.132812 611.839844 C 254.261719 612.46875 254.324219 613.105469 254.324219 613.75 C 254.320312 614.390625 254.257812 615.027344 254.132812 615.65625 C 254.007812 616.289062 253.820312 616.898438 253.574219 617.492188 C 253.328125 618.085938 253.027344 618.648438 252.671875 619.183594 C 252.3125 619.71875 251.90625 620.210938 251.453125 620.664062 C 251 621.121094 250.503906 621.527344 249.972656 621.882812 C 249.4375 622.238281 248.875 622.542969 248.28125 622.789062 C 247.6875 623.035156 247.074219 623.21875 246.445312 623.347656 C 245.816406 623.472656 245.179688 623.535156 244.535156 623.535156 Z M 468.410156 368.722656 C 469.050781 368.722656 469.6875 368.785156 470.316406 368.910156 C 470.949219 369.035156 471.558594 369.21875 472.152344 369.464844 C 472.746094 369.710938 473.3125 370.011719 473.847656 370.371094 C 474.382812 370.726562 474.875 371.132812 475.328125 371.585938 C 475.785156 372.042969 476.191406 372.535156 476.546875 373.070312 C 476.90625 373.605469 477.207031 374.167969 477.453125 374.761719 C 477.699219 375.355469 477.882812 375.96875 478.007812 376.597656 C 478.132812 377.230469 478.199219 377.867188 478.199219 378.507812 C 478.199219 379.152344 478.136719 379.789062 478.007812 380.417969 C 477.882812 381.046875 477.699219 381.660156 477.453125 382.253906 C 477.207031 382.847656 476.90625 383.410156 476.546875 383.945312 C 476.191406 384.480469 475.785156 384.976562 475.332031 385.429688 C 474.875 385.882812 474.382812 386.289062 473.847656 386.648438 C 473.3125 387.003906 472.75 387.304688 472.15625 387.550781 C 471.5625 387.796875 470.949219 387.984375 470.320312 388.109375 C 469.691406 388.234375 469.054688 388.296875 468.410156 388.296875 C 467.769531 388.296875 467.132812 388.234375 466.5 388.109375 C 465.871094 387.984375 465.257812 387.796875 464.664062 387.550781 C 464.070312 387.304688 463.507812 387.003906 462.972656 386.648438 C 462.4375 386.289062 461.945312 385.886719 461.488281 385.429688 C 461.035156 384.976562 460.628906 384.480469 460.273438 383.945312 C 459.914062 383.414062 459.613281 382.847656 459.367188 382.253906 C 459.121094 381.660156 458.9375 381.050781 458.808594 380.417969 C 458.683594 379.789062 458.621094 379.152344 458.621094 378.507812 C 458.621094 377.867188 458.6875 377.230469 458.8125 376.601562 C 458.9375 375.972656 459.125 375.359375 459.371094 374.765625 C 459.617188 374.171875 459.917969 373.609375 460.273438 373.074219 C 460.632812 372.539062 461.039062 372.046875 461.492188 371.59375 C 461.945312 371.136719 462.441406 370.730469 462.972656 370.375 C 463.507812 370.019531 464.070312 369.714844 464.664062 369.46875 C 465.257812 369.222656 465.871094 369.039062 466.5 368.910156 C 467.128906 368.785156 467.765625 368.722656 468.410156 368.722656 Z M 376.226562 378.648438 L 347.671875 428.109375 L 290.558594 428.109375 L 262.003906 378.648438 L 290.558594 329.1875 L 347.671875 329.1875 Z M 80.003906 336.277344 C 79.390625 336.277344 78.785156 336.222656 78.183594 336.109375 C 77.582031 335.996094 76.996094 335.824219 76.429688 335.601562 C 75.859375 335.378906 75.316406 335.105469 74.796875 334.78125 C 74.277344 334.453125 73.796875 334.082031 73.347656 333.667969 C 72.898438 333.253906 72.492188 332.796875 72.128906 332.304688 C 71.765625 331.8125 71.449219 331.292969 71.183594 330.742188 C 70.917969 330.191406 70.707031 329.621094 70.546875 329.027344 C 70.390625 328.4375 70.289062 327.839844 70.242188 327.226562 C 70.195312 326.617188 70.207031 326.007812 70.273438 325.402344 C 70.34375 324.792969 70.464844 324.195312 70.644531 323.613281 C 70.824219 323.027344 71.058594 322.464844 71.34375 321.921875 C 71.628906 321.382812 71.960938 320.871094 72.34375 320.394531 C 72.722656 319.914062 73.144531 319.476562 73.609375 319.078125 C 74.074219 318.679688 74.570312 318.324219 75.097656 318.019531 C 75.628906 317.710938 76.179688 317.457031 76.757812 317.253906 C 77.335938 317.050781 77.925781 316.90625 78.53125 316.8125 C 79.136719 316.722656 79.746094 316.6875 80.355469 316.710938 C 80.96875 316.730469 81.570312 316.808594 82.167969 316.945312 C 82.765625 317.082031 83.34375 317.269531 83.902344 317.515625 C 84.464844 317.757812 85 318.050781 85.503906 318.394531 C 86.011719 318.738281 86.480469 319.128906 86.914062 319.558594 C 87.34375 319.992188 87.734375 320.460938 88.082031 320.964844 C 88.425781 321.46875 88.722656 322.003906 88.964844 322.5625 C 89.210938 323.125 89.402344 323.703125 89.539062 324.296875 L 89.539062 328.683594 C 89.417969 329.21875 89.25 329.738281 89.039062 330.246094 C 88.824219 330.753906 88.574219 331.238281 88.28125 331.703125 C 87.988281 332.167969 87.65625 332.605469 87.289062 333.015625 C 86.925781 333.425781 86.527344 333.800781 86.097656 334.144531 C 85.667969 334.484375 85.210938 334.789062 84.730469 335.054688 C 84.25 335.320312 83.75 335.542969 83.230469 335.726562 C 82.710938 335.90625 82.179688 336.046875 81.640625 336.136719 C 81.097656 336.230469 80.550781 336.277344 80.003906 336.277344 Z M 171.664062 326.488281 L 200.21875 277.03125 L 257.332031 277.03125 L 285.886719 326.488281 L 257.332031 375.949219 L 200.21875 375.949219 Z M 347.671875 532.429688 L 290.558594 532.429688 L 262.003906 482.96875 L 290.558594 433.507812 L 347.671875 433.507812 L 376.226562 482.96875 Z M 468.910156 492.339844 C 468.265625 492.339844 467.632812 492.277344 467 492.152344 C 466.371094 492.027344 465.757812 491.839844 465.164062 491.59375 C 464.570312 491.347656 464.007812 491.046875 463.472656 490.691406 C 462.9375 490.332031 462.445312 489.925781 461.988281 489.472656 C 461.535156 489.019531 461.128906 488.523438 460.773438 487.988281 C 460.414062 487.457031 460.113281 486.890625 459.867188 486.296875 C 459.621094 485.703125 459.4375 485.089844 459.3125 484.460938 C 459.183594 483.832031 459.121094 483.195312 459.121094 482.550781 C 459.121094 481.910156 459.183594 481.273438 459.3125 480.640625 C 459.4375 480.011719 459.621094 479.398438 459.867188 478.804688 C 460.113281 478.210938 460.414062 477.648438 460.773438 477.113281 C 461.128906 476.578125 461.535156 476.085938 461.988281 475.632812 C 462.445312 475.175781 462.9375 474.769531 463.472656 474.414062 C 464.007812 474.058594 464.570312 473.753906 465.164062 473.507812 C 465.757812 473.261719 466.371094 473.078125 467 472.953125 C 467.632812 472.828125 468.265625 472.765625 468.910156 472.765625 C 469.554688 472.765625 470.1875 472.828125 470.820312 472.953125 C 471.449219 473.078125 472.0625 473.261719 472.65625 473.507812 C 473.25 473.753906 473.8125 474.058594 474.347656 474.414062 C 474.882812 474.769531 475.375 475.175781 475.832031 475.632812 C 476.285156 476.085938 476.691406 476.578125 477.046875 477.113281 C 477.40625 477.648438 477.707031 478.210938 477.953125 478.804688 C 478.199219 479.398438 478.382812 480.011719 478.507812 480.640625 C 478.636719 481.273438 478.699219 481.910156 478.699219 482.550781 C 478.695312 483.195312 478.632812 483.828125 478.507812 484.460938 C 478.378906 485.089844 478.195312 485.699219 477.949219 486.292969 C 477.703125 486.886719 477.398438 487.449219 477.042969 487.984375 C 476.6875 488.519531 476.28125 489.011719 475.824219 489.464844 C 475.371094 489.917969 474.878906 490.324219 474.34375 490.683594 C 473.808594 491.039062 473.246094 491.339844 472.652344 491.585938 C 472.058594 491.832031 471.449219 492.019531 470.816406 492.144531 C 470.1875 492.269531 469.550781 492.332031 468.910156 492.332031 Z M 468.910156 492.339844 " fill-opacity="1" fill-rule="nonzero"/></g><g fill="#000000" fill-opacity="1"><g transform="translate(776.671427, 431.15445)"><g><path d="M 48.703125 1.078125 C 40.785156 1.078125 33.691406 -0.203125 27.421875 -2.765625 C 21.160156 -5.335938 16.15625 -9.140625 12.40625 -14.171875 C 8.65625 -19.210938 6.675781 -25.273438 6.46875 -32.359375 L 34.515625 -32.359375 C 34.929688 -28.359375 36.316406 -25.300781 38.671875 -23.1875 C 41.035156 -21.082031 44.117188 -20.03125 47.921875 -20.03125 C 51.828125 -20.03125 54.910156 -20.925781 57.171875 -22.71875 C 59.429688 -24.519531 60.5625 -27.015625 60.5625 -30.203125 C 60.5625 -32.878906 59.660156 -35.085938 57.859375 -36.828125 C 56.066406 -38.578125 53.859375 -40.015625 51.234375 -41.140625 C 48.617188 -42.273438 44.894531 -43.5625 40.0625 -45 C 33.082031 -47.15625 27.378906 -49.3125 22.953125 -51.46875 C 18.535156 -53.625 14.734375 -56.804688 11.546875 -61.015625 C 8.367188 -65.234375 6.78125 -70.734375 6.78125 -77.515625 C 6.78125 -87.585938 10.425781 -95.472656 17.71875 -101.171875 C 25.019531 -106.867188 34.523438 -109.71875 46.234375 -109.71875 C 58.148438 -109.71875 67.753906 -106.867188 75.046875 -101.171875 C 82.347656 -95.472656 86.253906 -87.535156 86.765625 -77.359375 L 58.25 -77.359375 C 58.039062 -80.859375 56.753906 -83.609375 54.390625 -85.609375 C 52.035156 -87.609375 49.007812 -88.609375 45.3125 -88.609375 C 42.125 -88.609375 39.550781 -87.757812 37.59375 -86.0625 C 35.644531 -84.375 34.671875 -81.9375 34.671875 -78.75 C 34.671875 -75.257812 36.3125 -72.535156 39.59375 -70.578125 C 42.882812 -68.628906 48.023438 -66.523438 55.015625 -64.265625 C 62.003906 -61.898438 67.679688 -59.640625 72.046875 -57.484375 C 76.410156 -55.328125 80.1875 -52.191406 83.375 -48.078125 C 86.5625 -43.972656 88.15625 -38.679688 88.15625 -32.203125 C 88.15625 -26.046875 86.585938 -20.445312 83.453125 -15.40625 C 80.316406 -10.375 75.769531 -6.367188 69.8125 -3.390625 C 63.851562 -0.410156 56.816406 1.078125 48.703125 1.078125 Z M 48.703125 1.078125 "/></g></g></g><g fill="#000000" fill-opacity="1"><g transform="translate(871.438273, 431.15445)"><g><path d="M 5.078125 -54.25 C 5.078125 -64.9375 7.390625 -74.460938 12.015625 -82.828125 C 16.640625 -91.203125 23.085938 -97.726562 31.359375 -102.40625 C 39.628906 -107.082031 49.003906 -109.421875 59.484375 -109.421875 C 72.328125 -109.421875 83.320312 -106.03125 92.46875 -99.25 C 101.613281 -92.46875 107.726562 -83.21875 110.8125 -71.5 L 81.828125 -71.5 C 79.671875 -76.019531 76.613281 -79.460938 72.65625 -81.828125 C 68.707031 -84.191406 64.210938 -85.375 59.171875 -85.375 C 51.054688 -85.375 44.484375 -82.546875 39.453125 -76.890625 C 34.421875 -71.242188 31.90625 -63.695312 31.90625 -54.25 C 31.90625 -44.789062 34.421875 -37.234375 39.453125 -31.578125 C 44.484375 -25.929688 51.054688 -23.109375 59.171875 -23.109375 C 64.210938 -23.109375 68.707031 -24.289062 72.65625 -26.65625 C 76.613281 -29.019531 79.671875 -32.460938 81.828125 -36.984375 L 110.8125 -36.984375 C 107.726562 -25.273438 101.613281 -16.054688 92.46875 -9.328125 C 83.320312 -2.597656 72.328125 0.765625 59.484375 0.765625 C 49.003906 0.765625 39.628906 -1.566406 31.359375 -6.234375 C 23.085938 -10.910156 16.640625 -17.410156 12.015625 -25.734375 C 7.390625 -34.054688 5.078125 -43.5625 5.078125 -54.25 Z M 5.078125 -54.25 "/></g></g></g><g fill="#000000" fill-opacity="1"><g transform="translate(988.856642, 431.15445)"><g><path d="M 35.90625 -108.1875 L 35.90625 0 L 9.5625 0 L 9.5625 -108.1875 Z M 35.90625 -108.1875 "/></g></g></g><g fill="#000000" fill-opacity="1"><g transform="translate(1034.313917, 431.15445)"><g><path d="M 35.90625 -87.078125 L 35.90625 -65.1875 L 71.203125 -65.1875 L 71.203125 -44.84375 L 35.90625 -44.84375 L 35.90625 -21.109375 L 75.828125 -21.109375 L 75.828125 0 L 9.5625 0 L 9.5625 -108.1875 L 75.828125 -108.1875 L 75.828125 -87.078125 Z M 35.90625 -87.078125 "/></g></g></g><g fill="#000000" fill-opacity="1"><g transform="translate(1117.677887, 431.15445)"><g><path d="M 106.328125 0 L 79.984375 0 L 35.90625 -66.734375 L 35.90625 0 L 9.5625 0 L 9.5625 -108.1875 L 35.90625 -108.1875 L 79.984375 -41.140625 L 79.984375 -108.1875 L 106.328125 -108.1875 Z M 106.328125 0 "/></g></g></g><g fill="#000000" fill-opacity="1"><g transform="translate(1233.555404, 431.15445)"><g><path d="M 5.078125 -54.25 C 5.078125 -64.9375 7.390625 -74.460938 12.015625 -82.828125 C 16.640625 -91.203125 23.085938 -97.726562 31.359375 -102.40625 C 39.628906 -107.082031 49.003906 -109.421875 59.484375 -109.421875 C 72.328125 -109.421875 83.320312 -106.03125 92.46875 -99.25 C 101.613281 -92.46875 107.726562 -83.21875 110.8125 -71.5 L 81.828125 -71.5 C 79.671875 -76.019531 76.613281 -79.460938 72.65625 -81.828125 C 68.707031 -84.191406 64.210938 -85.375 59.171875 -85.375 C 51.054688 -85.375 44.484375 -82.546875 39.453125 -76.890625 C 34.421875 -71.242188 31.90625 -63.695312 31.90625 -54.25 C 31.90625 -44.789062 34.421875 -37.234375 39.453125 -31.578125 C 44.484375 -25.929688 51.054688 -23.109375 59.171875 -23.109375 C 64.210938 -23.109375 68.707031 -24.289062 72.65625 -26.65625 C 76.613281 -29.019531 79.671875 -32.460938 81.828125 -36.984375 L 110.8125 -36.984375 C 107.726562 -25.273438 101.613281 -16.054688 92.46875 -9.328125 C 83.320312 -2.597656 72.328125 0.765625 59.484375 0.765625 C 49.003906 0.765625 39.628906 -1.566406 31.359375 -6.234375 C 23.085938 -10.910156 16.640625 -17.410156 12.015625 -25.734375 C 7.390625 -34.054688 5.078125 -43.5625 5.078125 -54.25 Z M 5.078125 -54.25 "/></g></g></g><g fill="#000000" fill-opacity="1"><g transform="translate(1350.973774, 431.15445)"><g><path d="M 35.90625 -87.078125 L 35.90625 -65.1875 L 71.203125 -65.1875 L 71.203125 -44.84375 L 35.90625 -44.84375 L 35.90625 -21.109375 L 75.828125 -21.109375 L 75.828125 0 L 9.5625 0 L 9.5625 -108.1875 L 75.828125 -108.1875 L 75.828125 -87.078125 Z M 35.90625 -87.078125 "/></g></g></g></svg>